<mxfile host="app.diagrams.net" modified="2021-05-12T12:24:51.441Z" agent="5.0 (Windows NT 10.0; Win64; x64) AppleWebKit/537.36 (KHTML, like Gecko) Chrome/90.0.4430.72 Safari/537.36" etag="QZJp8WUwGan5wOSXc3mR" version="14.6.12" type="github" pages="5">
  <diagram id="f00wGhlLm0n4zRHemrxh" name="Page-1">
    <mxGraphModel dx="3101" dy="1154" grid="1" gridSize="10" guides="1" tooltips="1" connect="1" arrows="1" fold="1" page="1" pageScale="1" pageWidth="827" pageHeight="1169" math="0" shadow="0">
      <root>
        <mxCell id="0" />
        <mxCell id="1" parent="0" />
        <mxCell id="wCJARNpQgVaEjXj_w9Yw-1" value="&lt;div style=&quot;color: rgb(51 , 51 , 51) ; background-color: rgb(245 , 245 , 245) ; font-family: &amp;#34;consolas&amp;#34; , &amp;#34;courier new&amp;#34; , monospace ; font-size: 16px ; line-height: 22px&quot;&gt;&lt;span style=&quot;color: #7a3e9d ; font-weight: bold&quot;&gt;GetSugImp&lt;/span&gt;&lt;/div&gt;" style="rounded=1;whiteSpace=wrap;html=1;arcSize=40;fontColor=#000000;fillColor=#ffffc0;strokeColor=#ff0000;" parent="1" vertex="1">
          <mxGeometry x="-480" y="300" width="120" height="40" as="geometry" />
        </mxCell>
        <mxCell id="wCJARNpQgVaEjXj_w9Yw-2" value="" style="edgeStyle=orthogonalEdgeStyle;html=1;verticalAlign=bottom;endArrow=open;endSize=8;strokeColor=#ff0000;startArrow=none;" parent="1" source="wCJARNpQgVaEjXj_w9Yw-130" edge="1">
          <mxGeometry relative="1" as="geometry">
            <mxPoint x="-420" y="1650" as="targetPoint" />
          </mxGeometry>
        </mxCell>
        <mxCell id="wCJARNpQgVaEjXj_w9Yw-5" value="" style="edgeStyle=orthogonalEdgeStyle;html=1;verticalAlign=bottom;endArrow=none;endSize=8;strokeColor=#ff0000;startArrow=none;" parent="1" source="wCJARNpQgVaEjXj_w9Yw-9" edge="1">
          <mxGeometry relative="1" as="geometry">
            <mxPoint x="-420" y="520" as="targetPoint" />
            <mxPoint x="-420" y="340" as="sourcePoint" />
          </mxGeometry>
        </mxCell>
        <mxCell id="wCJARNpQgVaEjXj_w9Yw-7" value="&lt;div style=&quot;color: rgb(51 , 51 , 51) ; background-color: rgb(245 , 245 , 245) ; font-family: &amp;#34;consolas&amp;#34; , &amp;#34;courier new&amp;#34; , monospace ; font-size: 16px ; line-height: 22px&quot;&gt;&lt;span style=&quot;color: #7a3e9d&quot;&gt;query_option&lt;/span&gt;&lt;span style=&quot;color: #777777&quot;&gt;.&lt;/span&gt;&lt;span style=&quot;color: #aa3731 ; font-weight: bold&quot;&gt;normalize&lt;/span&gt;&lt;span style=&quot;color: #777777&quot;&gt;()&lt;/span&gt;&lt;/div&gt;&lt;div style=&quot;background-color: rgb(245 , 245 , 245) ; font-family: &amp;#34;consolas&amp;#34; , &amp;#34;courier new&amp;#34; , monospace ; font-size: 16px ; line-height: 22px&quot;&gt;&lt;font color=&quot;#777777&quot;&gt;如果需要做归一化校验&lt;/font&gt;&lt;/div&gt;" style="html=1;points=[];perimeter=orthogonalPerimeter;" parent="1" vertex="1">
          <mxGeometry x="-425" y="520" width="10" height="110" as="geometry" />
        </mxCell>
        <mxCell id="wCJARNpQgVaEjXj_w9Yw-8" value="" style="edgeStyle=orthogonalEdgeStyle;html=1;verticalAlign=bottom;endArrow=none;endSize=8;strokeColor=#ff0000;startArrow=none;" parent="1" source="wCJARNpQgVaEjXj_w9Yw-9" target="wCJARNpQgVaEjXj_w9Yw-7" edge="1">
          <mxGeometry relative="1" as="geometry">
            <mxPoint x="-420" y="1010" as="targetPoint" />
            <mxPoint x="-420" y="270" as="sourcePoint" />
          </mxGeometry>
        </mxCell>
        <mxCell id="wCJARNpQgVaEjXj_w9Yw-10" value="" style="edgeStyle=orthogonalEdgeStyle;html=1;verticalAlign=bottom;endArrow=none;strokeColor=#ff0000;startArrow=none;" parent="1" edge="1">
          <mxGeometry relative="1" as="geometry">
            <mxPoint x="-420" y="550" as="targetPoint" />
            <mxPoint x="-420" y="500" as="sourcePoint" />
          </mxGeometry>
        </mxCell>
        <mxCell id="wCJARNpQgVaEjXj_w9Yw-15" value="&lt;div style=&quot;color: rgb(51 , 51 , 51) ; background-color: rgb(245 , 245 , 245) ; font-family: &amp;#34;consolas&amp;#34; , &amp;#34;courier new&amp;#34; , monospace ; font-size: 16px ; line-height: 22px&quot;&gt;&lt;span style=&quot;color: #aa3731 ; font-weight: bold&quot;&gt;GQueryProcess&lt;/span&gt;&lt;/div&gt;" style="rounded=1;whiteSpace=wrap;html=1;arcSize=40;fontColor=#000000;fillColor=#ffffc0;strokeColor=#ff0000;" parent="1" vertex="1">
          <mxGeometry x="-250" y="300" width="120" height="40" as="geometry" />
        </mxCell>
        <mxCell id="wCJARNpQgVaEjXj_w9Yw-16" value="" style="edgeStyle=orthogonalEdgeStyle;html=1;verticalAlign=bottom;endArrow=open;endSize=8;strokeColor=#ff0000;startArrow=none;" parent="1" source="wCJARNpQgVaEjXj_w9Yw-44" edge="1">
          <mxGeometry relative="1" as="geometry">
            <mxPoint x="-190" y="1640" as="targetPoint" />
            <Array as="points">
              <mxPoint x="-190" y="930" />
              <mxPoint x="-190" y="930" />
            </Array>
          </mxGeometry>
        </mxCell>
        <mxCell id="wCJARNpQgVaEjXj_w9Yw-17" value="&lt;div style=&quot;color: rgb(51 , 51 , 51) ; background-color: rgb(245 , 245 , 245) ; font-family: &amp;#34;consolas&amp;#34; , &amp;#34;courier new&amp;#34; , monospace ; font-size: 16px ; line-height: 22px&quot;&gt;&lt;div style=&quot;font-family: &amp;#34;consolas&amp;#34; , &amp;#34;courier new&amp;#34; , monospace ; line-height: 22px&quot;&gt;&lt;span style=&quot;color: #aa3731 ; font-weight: bold&quot;&gt;Preprocess&lt;/span&gt;&lt;/div&gt;&lt;/div&gt;" style="html=1;points=[];perimeter=orthogonalPerimeter;" parent="1" vertex="1">
          <mxGeometry x="-195" y="520" width="10" height="110" as="geometry" />
        </mxCell>
        <mxCell id="wCJARNpQgVaEjXj_w9Yw-18" value="" style="edgeStyle=orthogonalEdgeStyle;html=1;verticalAlign=bottom;endArrow=none;endSize=8;strokeColor=#ff0000;" parent="1" source="wCJARNpQgVaEjXj_w9Yw-15" target="wCJARNpQgVaEjXj_w9Yw-17" edge="1">
          <mxGeometry relative="1" as="geometry">
            <mxPoint x="-190" y="940" as="targetPoint" />
            <mxPoint x="-190" y="170" as="sourcePoint" />
          </mxGeometry>
        </mxCell>
        <mxCell id="wCJARNpQgVaEjXj_w9Yw-23" value="&lt;div style=&quot;color: rgb(51 , 51 , 51) ; background-color: rgb(245 , 245 , 245) ; font-family: &amp;#34;consolas&amp;#34; , &amp;#34;courier new&amp;#34; , monospace ; font-size: 16px ; line-height: 22px&quot;&gt;&lt;span style=&quot;color: #7a3e9d ; font-weight: bold&quot;&gt;TermChecker&lt;/span&gt;&lt;/div&gt;" style="rounded=1;whiteSpace=wrap;html=1;arcSize=40;fontColor=#000000;fillColor=#ffffc0;strokeColor=#ff0000;" parent="1" vertex="1">
          <mxGeometry x="-30" y="300" width="120" height="40" as="geometry" />
        </mxCell>
        <mxCell id="wCJARNpQgVaEjXj_w9Yw-24" value="" style="edgeStyle=orthogonalEdgeStyle;html=1;verticalAlign=bottom;endArrow=open;endSize=8;strokeColor=#ff0000;startArrow=none;" parent="1" source="wCJARNpQgVaEjXj_w9Yw-25" edge="1">
          <mxGeometry relative="1" as="geometry">
            <mxPoint x="30" y="1670" as="targetPoint" />
          </mxGeometry>
        </mxCell>
        <mxCell id="wCJARNpQgVaEjXj_w9Yw-25" value="&lt;div style=&quot;background-color: rgb(245 , 245 , 245) ; line-height: 22px&quot;&gt;&lt;div style=&quot;color: rgb(51 , 51 , 51) ; font-family: &amp;#34;consolas&amp;#34; , &amp;#34;courier new&amp;#34; , monospace ; font-size: 16px ; line-height: 22px&quot;&gt;&lt;span style=&quot;color: #aa3731 ; font-weight: bold&quot;&gt;NormalizeTerm&lt;/span&gt;&lt;/div&gt;&lt;div style=&quot;line-height: 22px&quot;&gt;&lt;font color=&quot;#aa3731&quot; face=&quot;consolas, courier new, monospace&quot;&gt;&lt;span style=&quot;font-size: 16px&quot;&gt;&lt;b&gt;过滤特殊字符, 大小写转换&lt;/b&gt;&lt;/span&gt;&lt;/font&gt;&lt;br&gt;&lt;/div&gt;&lt;/div&gt;" style="html=1;points=[];perimeter=orthogonalPerimeter;" parent="1" vertex="1">
          <mxGeometry x="25" y="520" width="10" height="110" as="geometry" />
        </mxCell>
        <mxCell id="wCJARNpQgVaEjXj_w9Yw-26" value="" style="edgeStyle=orthogonalEdgeStyle;html=1;verticalAlign=bottom;endArrow=none;endSize=8;strokeColor=#ff0000;" parent="1" source="wCJARNpQgVaEjXj_w9Yw-23" target="wCJARNpQgVaEjXj_w9Yw-25" edge="1">
          <mxGeometry relative="1" as="geometry">
            <mxPoint x="30" y="920" as="targetPoint" />
            <mxPoint x="30" y="170" as="sourcePoint" />
          </mxGeometry>
        </mxCell>
        <mxCell id="wCJARNpQgVaEjXj_w9Yw-35" value="" style="endArrow=open;endFill=1;endSize=12;html=1;" parent="1" edge="1">
          <mxGeometry width="160" relative="1" as="geometry">
            <mxPoint x="-413" y="520" as="sourcePoint" />
            <mxPoint x="-198" y="520" as="targetPoint" />
          </mxGeometry>
        </mxCell>
        <mxCell id="wCJARNpQgVaEjXj_w9Yw-36" value="" style="endArrow=open;endFill=1;endSize=12;html=1;" parent="1" edge="1">
          <mxGeometry width="160" relative="1" as="geometry">
            <mxPoint x="-185" y="519" as="sourcePoint" />
            <mxPoint x="20" y="519" as="targetPoint" />
          </mxGeometry>
        </mxCell>
        <mxCell id="wCJARNpQgVaEjXj_w9Yw-37" value="" style="endArrow=open;endFill=1;endSize=12;html=1;" parent="1" edge="1">
          <mxGeometry width="160" relative="1" as="geometry">
            <mxPoint x="20" y="629" as="sourcePoint" />
            <mxPoint x="-185" y="629" as="targetPoint" />
          </mxGeometry>
        </mxCell>
        <mxCell id="wCJARNpQgVaEjXj_w9Yw-38" value="" style="endArrow=open;endFill=1;endSize=12;html=1;" parent="1" edge="1">
          <mxGeometry width="160" relative="1" as="geometry">
            <mxPoint x="-200" y="630" as="sourcePoint" />
            <mxPoint x="-413" y="630" as="targetPoint" />
            <Array as="points">
              <mxPoint x="-313" y="630" />
            </Array>
          </mxGeometry>
        </mxCell>
        <mxCell id="wCJARNpQgVaEjXj_w9Yw-41" value="&lt;div style=&quot;color: rgb(51 , 51 , 51) ; background-color: rgb(245 , 245 , 245) ; font-family: &amp;#34;consolas&amp;#34; , &amp;#34;courier new&amp;#34; , monospace ; font-size: 16px ; line-height: 22px&quot;&gt;&lt;div style=&quot;font-family: &amp;#34;consolas&amp;#34; , &amp;#34;courier new&amp;#34; , monospace ; line-height: 22px&quot;&gt;&lt;div style=&quot;font-family: &amp;#34;consolas&amp;#34; , &amp;#34;courier new&amp;#34; , monospace ; line-height: 22px&quot;&gt;&lt;span style=&quot;color: #7a3e9d&quot;&gt;query_option&lt;/span&gt;&lt;span style=&quot;color: #777777&quot;&gt;.&lt;/span&gt;&lt;span style=&quot;color: #aa3731 ; font-weight: bold&quot;&gt;check&lt;/span&gt;&lt;span style=&quot;color: #777777&quot;&gt;()&lt;/span&gt;&lt;/div&gt;&lt;div style=&quot;font-family: &amp;#34;consolas&amp;#34; , &amp;#34;courier new&amp;#34; , monospace ; line-height: 22px&quot;&gt;&lt;span style=&quot;color: #777777&quot;&gt;如果需要做星河校验&lt;/span&gt;&lt;/div&gt;&lt;div style=&quot;font-family: &amp;#34;consolas&amp;#34; , &amp;#34;courier new&amp;#34; , monospace ; line-height: 22px&quot;&gt;&lt;div style=&quot;font-family: &amp;#34;consolas&amp;#34; , &amp;#34;courier new&amp;#34; , monospace ; line-height: 22px&quot;&gt;&lt;span style=&quot;color: #aa3731 ; font-weight: bold&quot;&gt;DoQueryCheck&lt;/span&gt;&lt;/div&gt;&lt;/div&gt;&lt;/div&gt;&lt;/div&gt;" style="html=1;points=[];perimeter=orthogonalPerimeter;" parent="1" vertex="1">
          <mxGeometry x="-425" y="670" width="10" height="110" as="geometry" />
        </mxCell>
        <mxCell id="wCJARNpQgVaEjXj_w9Yw-42" value="" style="edgeStyle=orthogonalEdgeStyle;html=1;verticalAlign=bottom;endArrow=none;endSize=8;strokeColor=#ff0000;startArrow=none;" parent="1" source="wCJARNpQgVaEjXj_w9Yw-7" target="wCJARNpQgVaEjXj_w9Yw-41" edge="1">
          <mxGeometry relative="1" as="geometry">
            <mxPoint x="-420" y="1000" as="targetPoint" />
            <mxPoint x="-420" y="630" as="sourcePoint" />
          </mxGeometry>
        </mxCell>
        <mxCell id="wCJARNpQgVaEjXj_w9Yw-44" value="&lt;div style=&quot;color: rgb(51 , 51 , 51) ; background-color: rgb(245 , 245 , 245) ; font-family: &amp;#34;consolas&amp;#34; , &amp;#34;courier new&amp;#34; , monospace ; font-size: 16px ; line-height: 22px&quot;&gt;&lt;div style=&quot;font-family: &amp;#34;consolas&amp;#34; , &amp;#34;courier new&amp;#34; , monospace ; line-height: 22px&quot;&gt;&lt;div style=&quot;font-family: &amp;#34;consolas&amp;#34; , &amp;#34;courier new&amp;#34; , monospace ; line-height: 22px&quot;&gt;&lt;span style=&quot;color: #aa3731 ; font-weight: bold&quot;&gt;CheckQueryValid&lt;/span&gt;&lt;/div&gt;&lt;/div&gt;&lt;/div&gt;" style="html=1;points=[];perimeter=orthogonalPerimeter;" parent="1" vertex="1">
          <mxGeometry x="-195" y="670" width="10" height="110" as="geometry" />
        </mxCell>
        <mxCell id="wCJARNpQgVaEjXj_w9Yw-45" value="" style="edgeStyle=orthogonalEdgeStyle;html=1;verticalAlign=bottom;endArrow=none;endSize=8;strokeColor=#ff0000;startArrow=none;" parent="1" source="wCJARNpQgVaEjXj_w9Yw-17" target="wCJARNpQgVaEjXj_w9Yw-44" edge="1">
          <mxGeometry relative="1" as="geometry">
            <mxPoint x="-190" y="1000" as="targetPoint" />
            <mxPoint x="-190" y="630" as="sourcePoint" />
          </mxGeometry>
        </mxCell>
        <mxCell id="wCJARNpQgVaEjXj_w9Yw-46" value="&lt;div style=&quot;color: rgb(51 , 51 , 51) ; background-color: rgb(245 , 245 , 245) ; font-family: &amp;#34;consolas&amp;#34; , &amp;#34;courier new&amp;#34; , monospace ; font-size: 16px ; line-height: 22px&quot;&gt;&lt;span style=&quot;color: #aa3731 ; font-weight: bold&quot;&gt;GQueryPolicy&lt;/span&gt;&lt;/div&gt;" style="rounded=1;whiteSpace=wrap;html=1;arcSize=40;fontColor=#000000;fillColor=#ffffc0;strokeColor=#ff0000;" parent="1" vertex="1">
          <mxGeometry x="160" y="300" width="120" height="40" as="geometry" />
        </mxCell>
        <mxCell id="wCJARNpQgVaEjXj_w9Yw-47" value="" style="edgeStyle=orthogonalEdgeStyle;html=1;verticalAlign=bottom;endArrow=open;endSize=8;strokeColor=#ff0000;startArrow=none;" parent="1" source="wCJARNpQgVaEjXj_w9Yw-48" edge="1">
          <mxGeometry relative="1" as="geometry">
            <mxPoint x="220" y="1630" as="targetPoint" />
          </mxGeometry>
        </mxCell>
        <mxCell id="wCJARNpQgVaEjXj_w9Yw-48" value="&lt;div style=&quot;color: rgb(51 , 51 , 51) ; background-color: rgb(245 , 245 , 245) ; font-family: &amp;#34;consolas&amp;#34; , &amp;#34;courier new&amp;#34; , monospace ; font-size: 16px ; line-height: 22px&quot;&gt;&lt;div style=&quot;font-family: &amp;#34;consolas&amp;#34; , &amp;#34;courier new&amp;#34; , monospace ; line-height: 22px&quot;&gt;&lt;div style=&quot;font-family: &amp;#34;consolas&amp;#34; , &amp;#34;courier new&amp;#34; , monospace ; line-height: 22px&quot;&gt;&lt;div style=&quot;font-family: &amp;#34;consolas&amp;#34; , &amp;#34;courier new&amp;#34; , monospace ; line-height: 22px&quot;&gt;&lt;span style=&quot;color: #aa3731 ; font-weight: bold&quot;&gt;Check&lt;/span&gt;&lt;/div&gt;&lt;/div&gt;&lt;/div&gt;&lt;/div&gt;" style="html=1;points=[];perimeter=orthogonalPerimeter;" parent="1" vertex="1">
          <mxGeometry x="215" y="670" width="10" height="110" as="geometry" />
        </mxCell>
        <mxCell id="wCJARNpQgVaEjXj_w9Yw-49" value="" style="edgeStyle=orthogonalEdgeStyle;html=1;verticalAlign=bottom;endArrow=none;endSize=8;strokeColor=#ff0000;" parent="1" source="wCJARNpQgVaEjXj_w9Yw-46" target="wCJARNpQgVaEjXj_w9Yw-48" edge="1">
          <mxGeometry relative="1" as="geometry">
            <mxPoint x="220" y="990" as="targetPoint" />
            <mxPoint x="220" y="170" as="sourcePoint" />
          </mxGeometry>
        </mxCell>
        <mxCell id="wCJARNpQgVaEjXj_w9Yw-50" value="&lt;div style=&quot;color: rgb(51 , 51 , 51) ; background-color: rgb(245 , 245 , 245) ; font-family: &amp;#34;consolas&amp;#34; , &amp;#34;courier new&amp;#34; , monospace ; font-size: 16px ; line-height: 22px&quot;&gt;SmartSugUnityPolicyProxy&lt;br&gt;&lt;/div&gt;" style="rounded=1;whiteSpace=wrap;html=1;arcSize=40;fontColor=#000000;fillColor=#ffffc0;strokeColor=#ff0000;" parent="1" vertex="1">
          <mxGeometry x="360" y="290" width="200" height="60" as="geometry" />
        </mxCell>
        <mxCell id="wCJARNpQgVaEjXj_w9Yw-51" value="" style="html=1;verticalAlign=bottom;endArrow=open;endSize=8;strokeColor=#ff0000;startArrow=none;exitX=0.6;exitY=1.018;exitDx=0;exitDy=0;exitPerimeter=0;" parent="1" source="wCJARNpQgVaEjXj_w9Yw-112" edge="1">
          <mxGeometry relative="1" as="geometry">
            <mxPoint x="461" y="1630" as="targetPoint" />
          </mxGeometry>
        </mxCell>
        <mxCell id="wCJARNpQgVaEjXj_w9Yw-52" value="&lt;div style=&quot;color: rgb(51 , 51 , 51) ; background-color: rgb(245 , 245 , 245) ; font-family: &amp;#34;consolas&amp;#34; , &amp;#34;courier new&amp;#34; , monospace ; font-size: 16px ; line-height: 22px&quot;&gt;&lt;div style=&quot;font-family: &amp;#34;consolas&amp;#34; , &amp;#34;courier new&amp;#34; , monospace ; line-height: 22px&quot;&gt;&lt;div style=&quot;font-family: &amp;#34;consolas&amp;#34; , &amp;#34;courier new&amp;#34; , monospace ; line-height: 22px&quot;&gt;&lt;div style=&quot;font-family: &amp;#34;consolas&amp;#34; , &amp;#34;courier new&amp;#34; , monospace ; line-height: 22px&quot;&gt;&lt;div style=&quot;font-family: &amp;#34;consolas&amp;#34; , &amp;#34;courier new&amp;#34; , monospace ; line-height: 22px&quot;&gt;&lt;span style=&quot;color: #aa3731 ; font-weight: bold&quot;&gt;taf服务接口&lt;/span&gt;&lt;/div&gt;&lt;div style=&quot;font-family: &amp;#34;consolas&amp;#34; , &amp;#34;courier new&amp;#34; , monospace ; line-height: 22px&quot;&gt;&lt;span style=&quot;color: #aa3731 ; font-weight: bold&quot;&gt;checkInputUnityPolicy&lt;/span&gt;&lt;/div&gt;&lt;/div&gt;&lt;/div&gt;&lt;/div&gt;&lt;/div&gt;" style="html=1;points=[];perimeter=orthogonalPerimeter;" parent="1" vertex="1">
          <mxGeometry x="455" y="670" width="10" height="110" as="geometry" />
        </mxCell>
        <mxCell id="wCJARNpQgVaEjXj_w9Yw-53" value="" style="html=1;verticalAlign=bottom;endArrow=none;endSize=8;strokeColor=#ff0000;" parent="1" source="wCJARNpQgVaEjXj_w9Yw-50" target="wCJARNpQgVaEjXj_w9Yw-52" edge="1">
          <mxGeometry relative="1" as="geometry">
            <mxPoint x="420" y="990" as="targetPoint" />
            <mxPoint x="420" y="170" as="sourcePoint" />
          </mxGeometry>
        </mxCell>
        <mxCell id="wCJARNpQgVaEjXj_w9Yw-54" value="" style="endArrow=open;endFill=1;endSize=12;html=1;" parent="1" edge="1">
          <mxGeometry width="160" relative="1" as="geometry">
            <mxPoint x="-410" y="670" as="sourcePoint" />
            <mxPoint x="-195" y="670" as="targetPoint" />
          </mxGeometry>
        </mxCell>
        <mxCell id="wCJARNpQgVaEjXj_w9Yw-55" value="" style="endArrow=open;endFill=1;endSize=12;html=1;exitX=1.5;exitY=0;exitDx=0;exitDy=0;exitPerimeter=0;" parent="1" source="wCJARNpQgVaEjXj_w9Yw-44" edge="1">
          <mxGeometry width="160" relative="1" as="geometry">
            <mxPoint x="-110" y="670" as="sourcePoint" />
            <mxPoint x="210" y="670" as="targetPoint" />
          </mxGeometry>
        </mxCell>
        <mxCell id="wCJARNpQgVaEjXj_w9Yw-56" value="" style="endArrow=open;endFill=1;endSize=12;html=1;entryX=0.2;entryY=0.027;entryDx=0;entryDy=0;entryPerimeter=0;" parent="1" target="wCJARNpQgVaEjXj_w9Yw-52" edge="1">
          <mxGeometry width="160" relative="1" as="geometry">
            <mxPoint x="230" y="673" as="sourcePoint" />
            <mxPoint x="455" y="670" as="targetPoint" />
          </mxGeometry>
        </mxCell>
        <mxCell id="wCJARNpQgVaEjXj_w9Yw-58" value="" style="endArrow=open;endFill=1;endSize=12;html=1;" parent="1" target="wCJARNpQgVaEjXj_w9Yw-48" edge="1">
          <mxGeometry width="160" relative="1" as="geometry">
            <mxPoint x="450" y="780" as="sourcePoint" />
            <mxPoint x="250" y="780" as="targetPoint" />
          </mxGeometry>
        </mxCell>
        <mxCell id="wCJARNpQgVaEjXj_w9Yw-59" value="" style="endArrow=open;endFill=1;endSize=12;html=1;entryX=1.1;entryY=0.991;entryDx=0;entryDy=0;entryPerimeter=0;" parent="1" target="wCJARNpQgVaEjXj_w9Yw-44" edge="1">
          <mxGeometry width="160" relative="1" as="geometry">
            <mxPoint x="250" y="779" as="sourcePoint" />
            <mxPoint y="779" as="targetPoint" />
          </mxGeometry>
        </mxCell>
        <mxCell id="wCJARNpQgVaEjXj_w9Yw-60" value="" style="endArrow=open;endFill=1;endSize=12;html=1;" parent="1" edge="1">
          <mxGeometry width="160" relative="1" as="geometry">
            <mxPoint x="-200" y="780" as="sourcePoint" />
            <mxPoint x="-410" y="780" as="targetPoint" />
          </mxGeometry>
        </mxCell>
        <mxCell id="wCJARNpQgVaEjXj_w9Yw-61" value="&lt;div style=&quot;background-color: rgb(245 , 245 , 245) ; font-family: &amp;#34;consolas&amp;#34; , &amp;#34;courier new&amp;#34; , monospace ; font-size: 16px ; line-height: 22px&quot;&gt;&lt;div style=&quot;font-family: &amp;#34;consolas&amp;#34; , &amp;#34;courier new&amp;#34; , monospace ; line-height: 22px&quot;&gt;&lt;div style=&quot;font-family: &amp;#34;consolas&amp;#34; , &amp;#34;courier new&amp;#34; , monospace ; line-height: 22px&quot;&gt;&lt;div style=&quot;font-family: &amp;#34;consolas&amp;#34; , &amp;#34;courier new&amp;#34; , monospace ; line-height: 22px&quot;&gt;&lt;div style=&quot;color: rgb(51 , 51 , 51) ; font-family: &amp;#34;consolas&amp;#34; , &amp;#34;courier new&amp;#34; , monospace ; line-height: 22px&quot;&gt;&lt;span style=&quot;color: #aa3731 ; font-weight: bold&quot;&gt;DoRecall&lt;/span&gt;&lt;/div&gt;&lt;div style=&quot;font-family: &amp;#34;consolas&amp;#34; , &amp;#34;courier new&amp;#34; , monospace ; line-height: 22px&quot;&gt;&lt;font color=&quot;#aa3731&quot;&gt;&lt;b&gt;调用sugRoot/SugLeaf召回&lt;/b&gt;&lt;/font&gt;&lt;/div&gt;&lt;/div&gt;&lt;/div&gt;&lt;/div&gt;&lt;/div&gt;" style="html=1;points=[];perimeter=orthogonalPerimeter;" parent="1" vertex="1">
          <mxGeometry x="-425" y="840" width="10" height="110" as="geometry" />
        </mxCell>
        <mxCell id="wCJARNpQgVaEjXj_w9Yw-63" value="" style="edgeStyle=orthogonalEdgeStyle;html=1;verticalAlign=bottom;endArrow=none;endSize=8;strokeColor=#ff0000;startArrow=none;" parent="1" source="wCJARNpQgVaEjXj_w9Yw-41" target="wCJARNpQgVaEjXj_w9Yw-61" edge="1">
          <mxGeometry relative="1" as="geometry">
            <mxPoint x="-420" y="1480" as="targetPoint" />
            <mxPoint x="-420" y="790" as="sourcePoint" />
          </mxGeometry>
        </mxCell>
        <mxCell id="wCJARNpQgVaEjXj_w9Yw-66" value="&lt;div style=&quot;color: rgb(51 , 51 , 51) ; background-color: rgb(245 , 245 , 245) ; font-family: &amp;#34;consolas&amp;#34; , &amp;#34;courier new&amp;#34; , monospace ; font-size: 16px ; line-height: 22px&quot;&gt;RecallPlugin&lt;/div&gt;" style="rounded=1;whiteSpace=wrap;html=1;arcSize=40;fontColor=#000000;fillColor=#ffffc0;strokeColor=#ff0000;" parent="1" vertex="1">
          <mxGeometry x="650" y="300" width="120" height="40" as="geometry" />
        </mxCell>
        <mxCell id="wCJARNpQgVaEjXj_w9Yw-67" value="" style="edgeStyle=orthogonalEdgeStyle;html=1;verticalAlign=bottom;endArrow=open;endSize=8;strokeColor=#ff0000;startArrow=none;" parent="1" source="wCJARNpQgVaEjXj_w9Yw-68" edge="1">
          <mxGeometry relative="1" as="geometry">
            <mxPoint x="710" y="1630" as="targetPoint" />
          </mxGeometry>
        </mxCell>
        <mxCell id="wCJARNpQgVaEjXj_w9Yw-68" value="&lt;div style=&quot;color: rgb(51 , 51 , 51) ; background-color: rgb(245 , 245 , 245) ; font-family: &amp;#34;consolas&amp;#34; , &amp;#34;courier new&amp;#34; , monospace ; font-size: 16px ; line-height: 22px&quot;&gt;&lt;div style=&quot;font-family: &amp;#34;consolas&amp;#34; , &amp;#34;courier new&amp;#34; , monospace ; line-height: 22px&quot;&gt;&lt;div style=&quot;font-family: &amp;#34;consolas&amp;#34; , &amp;#34;courier new&amp;#34; , monospace ; line-height: 22px&quot;&gt;&lt;div style=&quot;font-family: &amp;#34;consolas&amp;#34; , &amp;#34;courier new&amp;#34; , monospace ; line-height: 22px&quot;&gt;&lt;div style=&quot;font-family: &amp;#34;consolas&amp;#34; , &amp;#34;courier new&amp;#34; , monospace ; line-height: 22px&quot;&gt;&lt;span style=&quot;color: #aa3731 ; font-weight: bold&quot;&gt;DoLeafRecall&lt;/span&gt;&lt;/div&gt;&lt;/div&gt;&lt;/div&gt;&lt;/div&gt;&lt;/div&gt;" style="html=1;points=[];perimeter=orthogonalPerimeter;" parent="1" vertex="1">
          <mxGeometry x="705" y="840" width="10" height="110" as="geometry" />
        </mxCell>
        <mxCell id="wCJARNpQgVaEjXj_w9Yw-69" value="" style="edgeStyle=orthogonalEdgeStyle;html=1;verticalAlign=bottom;endArrow=none;endSize=8;strokeColor=#ff0000;" parent="1" source="wCJARNpQgVaEjXj_w9Yw-66" target="wCJARNpQgVaEjXj_w9Yw-68" edge="1">
          <mxGeometry relative="1" as="geometry">
            <mxPoint x="710" y="1582" as="targetPoint" />
            <mxPoint x="710" y="170" as="sourcePoint" />
          </mxGeometry>
        </mxCell>
        <mxCell id="wCJARNpQgVaEjXj_w9Yw-73" value="&lt;font color=&quot;#aa3731&quot; face=&quot;consolas, courier new, monospace&quot;&gt;&lt;span style=&quot;font-size: 16px ; background-color: rgb(245 , 245 , 245)&quot;&gt;&lt;b&gt;SugRoot&lt;/b&gt;&lt;/span&gt;&lt;/font&gt;" style="rounded=1;whiteSpace=wrap;html=1;arcSize=40;fontColor=#000000;fillColor=#ffffc0;strokeColor=#ff0000;" parent="1" vertex="1">
          <mxGeometry x="850" y="300" width="120" height="40" as="geometry" />
        </mxCell>
        <mxCell id="wCJARNpQgVaEjXj_w9Yw-74" value="" style="edgeStyle=orthogonalEdgeStyle;html=1;verticalAlign=bottom;endArrow=open;endSize=8;strokeColor=#ff0000;startArrow=none;" parent="1" source="wCJARNpQgVaEjXj_w9Yw-80" edge="1">
          <mxGeometry relative="1" as="geometry">
            <mxPoint x="910" y="1630" as="targetPoint" />
          </mxGeometry>
        </mxCell>
        <mxCell id="wCJARNpQgVaEjXj_w9Yw-77" value="&lt;b style=&quot;color: rgb(170 , 55 , 49) ; font-family: &amp;#34;consolas&amp;#34; , &amp;#34;courier new&amp;#34; , monospace ; font-size: 16px&quot;&gt;SugLeaf&lt;/b&gt;" style="rounded=1;whiteSpace=wrap;html=1;arcSize=40;fontColor=#000000;fillColor=#ffffc0;strokeColor=#ff0000;" parent="1" vertex="1">
          <mxGeometry x="1030" y="300" width="120" height="40" as="geometry" />
        </mxCell>
        <mxCell id="wCJARNpQgVaEjXj_w9Yw-78" value="" style="edgeStyle=orthogonalEdgeStyle;html=1;verticalAlign=bottom;endArrow=open;endSize=8;strokeColor=#ff0000;startArrow=none;" parent="1" source="wCJARNpQgVaEjXj_w9Yw-82" edge="1">
          <mxGeometry relative="1" as="geometry">
            <mxPoint x="1090" y="1630" as="targetPoint" />
          </mxGeometry>
        </mxCell>
        <mxCell id="wCJARNpQgVaEjXj_w9Yw-79" value="" style="endArrow=open;endFill=1;endSize=12;html=1;exitX=1.5;exitY=0;exitDx=0;exitDy=0;exitPerimeter=0;" parent="1" edge="1">
          <mxGeometry width="160" relative="1" as="geometry">
            <mxPoint x="-413" y="840" as="sourcePoint" />
            <mxPoint x="700" y="840" as="targetPoint" />
          </mxGeometry>
        </mxCell>
        <mxCell id="wCJARNpQgVaEjXj_w9Yw-80" value="&lt;div style=&quot;color: rgb(51 , 51 , 51) ; background-color: rgb(245 , 245 , 245) ; font-family: &amp;#34;consolas&amp;#34; , &amp;#34;courier new&amp;#34; , monospace ; font-size: 16px ; line-height: 22px&quot;&gt;&lt;div style=&quot;font-family: &amp;#34;consolas&amp;#34; , &amp;#34;courier new&amp;#34; , monospace ; line-height: 22px&quot;&gt;&lt;div style=&quot;font-family: &amp;#34;consolas&amp;#34; , &amp;#34;courier new&amp;#34; , monospace ; line-height: 22px&quot;&gt;&lt;div style=&quot;font-family: &amp;#34;consolas&amp;#34; , &amp;#34;courier new&amp;#34; , monospace ; line-height: 22px&quot;&gt;&lt;div style=&quot;font-family: &amp;#34;consolas&amp;#34; , &amp;#34;courier new&amp;#34; , monospace ; line-height: 22px&quot;&gt;&lt;span style=&quot;color: #aa3731 ; font-weight: bold&quot;&gt;Recall&lt;/span&gt;&lt;/div&gt;&lt;/div&gt;&lt;/div&gt;&lt;/div&gt;&lt;/div&gt;" style="html=1;points=[];perimeter=orthogonalPerimeter;" parent="1" vertex="1">
          <mxGeometry x="905" y="950" width="10" height="110" as="geometry" />
        </mxCell>
        <mxCell id="wCJARNpQgVaEjXj_w9Yw-81" value="" style="edgeStyle=orthogonalEdgeStyle;html=1;verticalAlign=bottom;endArrow=none;endSize=8;strokeColor=#ff0000;" parent="1" source="wCJARNpQgVaEjXj_w9Yw-73" target="wCJARNpQgVaEjXj_w9Yw-80" edge="1">
          <mxGeometry relative="1" as="geometry">
            <mxPoint x="910" y="1600" as="targetPoint" />
            <mxPoint x="910" y="170" as="sourcePoint" />
          </mxGeometry>
        </mxCell>
        <mxCell id="wCJARNpQgVaEjXj_w9Yw-82" value="&lt;div style=&quot;color: rgb(51 , 51 , 51) ; background-color: rgb(245 , 245 , 245) ; font-family: &amp;#34;consolas&amp;#34; , &amp;#34;courier new&amp;#34; , monospace ; font-size: 16px ; line-height: 22px&quot;&gt;&lt;div style=&quot;font-family: &amp;#34;consolas&amp;#34; , &amp;#34;courier new&amp;#34; , monospace ; line-height: 22px&quot;&gt;&lt;div style=&quot;font-family: &amp;#34;consolas&amp;#34; , &amp;#34;courier new&amp;#34; , monospace ; line-height: 22px&quot;&gt;&lt;div style=&quot;font-family: &amp;#34;consolas&amp;#34; , &amp;#34;courier new&amp;#34; , monospace ; line-height: 22px&quot;&gt;&lt;div style=&quot;font-family: &amp;#34;consolas&amp;#34; , &amp;#34;courier new&amp;#34; , monospace ; line-height: 22px&quot;&gt;&lt;span style=&quot;color: #aa3731 ; font-weight: bold&quot;&gt;Recall&lt;/span&gt;&lt;/div&gt;&lt;/div&gt;&lt;/div&gt;&lt;/div&gt;&lt;/div&gt;" style="html=1;points=[];perimeter=orthogonalPerimeter;" parent="1" vertex="1">
          <mxGeometry x="1085" y="1030" width="10" height="110" as="geometry" />
        </mxCell>
        <mxCell id="wCJARNpQgVaEjXj_w9Yw-83" value="" style="edgeStyle=orthogonalEdgeStyle;html=1;verticalAlign=bottom;endArrow=none;endSize=8;strokeColor=#ff0000;" parent="1" source="wCJARNpQgVaEjXj_w9Yw-77" target="wCJARNpQgVaEjXj_w9Yw-82" edge="1">
          <mxGeometry relative="1" as="geometry">
            <mxPoint x="1090" y="1590" as="targetPoint" />
            <mxPoint x="1090" y="170" as="sourcePoint" />
          </mxGeometry>
        </mxCell>
        <mxCell id="wCJARNpQgVaEjXj_w9Yw-87" style="edgeStyle=none;rounded=0;orthogonalLoop=1;jettySize=auto;html=1;exitX=0.5;exitY=1;exitDx=0;exitDy=0;entryX=0.5;entryY=1;entryDx=0;entryDy=0;" parent="1" source="wCJARNpQgVaEjXj_w9Yw-84" target="wCJARNpQgVaEjXj_w9Yw-84" edge="1">
          <mxGeometry relative="1" as="geometry">
            <mxPoint x="680" y="1080" as="targetPoint" />
          </mxGeometry>
        </mxCell>
        <mxCell id="wCJARNpQgVaEjXj_w9Yw-84" value="&lt;div style=&quot;color: rgb(51 , 51 , 51) ; background-color: rgb(245 , 245 , 245) ; font-family: &amp;#34;consolas&amp;#34; , &amp;#34;courier new&amp;#34; , monospace ; font-size: 16px ; line-height: 22px&quot;&gt;&lt;span style=&quot;color: #7a3e9d&quot;&gt;cluster_info&lt;/span&gt;&lt;span style=&quot;color: #777777&quot;&gt;-&amp;gt;&lt;/span&gt;&lt;span style=&quot;color: #7a3e9d&quot;&gt;have_root&lt;/span&gt;&lt;/div&gt;" style="rhombus;whiteSpace=wrap;html=1;fillColor=#ffffc0;strokeColor=#ff0000;" parent="1" vertex="1">
          <mxGeometry x="610" y="950" width="195" height="110" as="geometry" />
        </mxCell>
        <mxCell id="wCJARNpQgVaEjXj_w9Yw-85" value="&lt;font style=&quot;font-size: 24px&quot;&gt;yes&lt;/font&gt;" style="edgeStyle=orthogonalEdgeStyle;html=1;align=left;verticalAlign=bottom;endArrow=open;endSize=8;strokeColor=#ff0000;" parent="1" source="wCJARNpQgVaEjXj_w9Yw-84" edge="1">
          <mxGeometry x="-0.8182" y="5" relative="1" as="geometry">
            <mxPoint x="880" y="1005" as="targetPoint" />
            <mxPoint as="offset" />
          </mxGeometry>
        </mxCell>
        <mxCell id="wCJARNpQgVaEjXj_w9Yw-86" value="&lt;font style=&quot;font-size: 24px&quot;&gt;no&lt;/font&gt;" style="edgeStyle=orthogonalEdgeStyle;html=1;align=left;verticalAlign=top;endArrow=open;endSize=8;strokeColor=#ff0000;" parent="1" edge="1">
          <mxGeometry x="-0.3515" y="-15" relative="1" as="geometry">
            <mxPoint x="1060" y="1084.5" as="targetPoint" />
            <mxPoint x="720" y="1085" as="sourcePoint" />
            <Array as="points">
              <mxPoint x="705" y="1084.5" />
              <mxPoint x="1015" y="1084.5" />
            </Array>
            <mxPoint as="offset" />
          </mxGeometry>
        </mxCell>
        <mxCell id="wCJARNpQgVaEjXj_w9Yw-90" value="" style="endArrow=open;endFill=1;endSize=12;html=1;exitX=0.472;exitY=-0.018;exitDx=0;exitDy=0;exitPerimeter=0;" parent="1" source="wCJARNpQgVaEjXj_w9Yw-84" edge="1">
          <mxGeometry width="160" relative="1" as="geometry">
            <mxPoint x="720" y="950" as="sourcePoint" />
            <mxPoint x="-410" y="950" as="targetPoint" />
          </mxGeometry>
        </mxCell>
        <mxCell id="wCJARNpQgVaEjXj_w9Yw-91" value="&lt;div style=&quot;background-color: rgb(245 , 245 , 245) ; font-family: &amp;#34;consolas&amp;#34; , &amp;#34;courier new&amp;#34; , monospace ; font-size: 16px ; line-height: 22px&quot;&gt;&lt;div style=&quot;font-family: &amp;#34;consolas&amp;#34; , &amp;#34;courier new&amp;#34; , monospace ; line-height: 22px&quot;&gt;&lt;div style=&quot;font-family: &amp;#34;consolas&amp;#34; , &amp;#34;courier new&amp;#34; , monospace ; line-height: 22px&quot;&gt;&lt;div style=&quot;font-family: &amp;#34;consolas&amp;#34; , &amp;#34;courier new&amp;#34; , monospace ; line-height: 22px&quot;&gt;&lt;div style=&quot;color: rgb(51 , 51 , 51) ; font-family: &amp;#34;consolas&amp;#34; , &amp;#34;courier new&amp;#34; , monospace ; line-height: 22px&quot;&gt;&lt;div style=&quot;font-family: &amp;#34;consolas&amp;#34; , &amp;#34;courier new&amp;#34; , monospace ; line-height: 22px&quot;&gt;&lt;span style=&quot;color: #aa3731 ; font-weight: bold&quot;&gt;DoFilter&lt;/span&gt;&lt;/div&gt;&lt;/div&gt;&lt;div style=&quot;font-family: &amp;#34;consolas&amp;#34; , &amp;#34;courier new&amp;#34; , monospace ; line-height: 22px&quot;&gt;&lt;font color=&quot;#aa3731&quot;&gt;&lt;b&gt;过滤逻辑&lt;/b&gt;&lt;/font&gt;&lt;/div&gt;&lt;/div&gt;&lt;/div&gt;&lt;/div&gt;&lt;/div&gt;" style="html=1;points=[];perimeter=orthogonalPerimeter;" parent="1" vertex="1">
          <mxGeometry x="-425" y="1151" width="10" height="110" as="geometry" />
        </mxCell>
        <mxCell id="wCJARNpQgVaEjXj_w9Yw-92" value="" style="edgeStyle=orthogonalEdgeStyle;html=1;verticalAlign=bottom;endArrow=none;endSize=8;strokeColor=#ff0000;startArrow=none;" parent="1" source="wCJARNpQgVaEjXj_w9Yw-61" target="wCJARNpQgVaEjXj_w9Yw-91" edge="1">
          <mxGeometry relative="1" as="geometry">
            <mxPoint x="-420" y="1450" as="targetPoint" />
            <mxPoint x="-420" y="950" as="sourcePoint" />
          </mxGeometry>
        </mxCell>
        <mxCell id="wCJARNpQgVaEjXj_w9Yw-93" value="&lt;div style=&quot;color: rgb(51 , 51 , 51) ; background-color: rgb(245 , 245 , 245) ; font-family: &amp;#34;consolas&amp;#34; , &amp;#34;courier new&amp;#34; , monospace ; font-size: 16px ; line-height: 22px&quot;&gt;FilterPlugin&lt;/div&gt;" style="rounded=1;whiteSpace=wrap;html=1;arcSize=40;fontColor=#000000;fillColor=#ffffc0;strokeColor=#ff0000;" parent="1" vertex="1">
          <mxGeometry x="1170" y="300" width="120" height="40" as="geometry" />
        </mxCell>
        <mxCell id="wCJARNpQgVaEjXj_w9Yw-94" value="" style="edgeStyle=orthogonalEdgeStyle;html=1;verticalAlign=bottom;endArrow=open;endSize=8;strokeColor=#ff0000;" parent="1" source="wCJARNpQgVaEjXj_w9Yw-93" edge="1">
          <mxGeometry relative="1" as="geometry">
            <mxPoint x="1230" y="1630" as="targetPoint" />
          </mxGeometry>
        </mxCell>
        <mxCell id="wCJARNpQgVaEjXj_w9Yw-98" value="&lt;div style=&quot;background-color: rgb(245 , 245 , 245) ; font-family: &amp;#34;consolas&amp;#34; , &amp;#34;courier new&amp;#34; , monospace ; font-size: 16px ; line-height: 22px&quot;&gt;&lt;div style=&quot;font-family: &amp;#34;consolas&amp;#34; , &amp;#34;courier new&amp;#34; , monospace ; line-height: 22px&quot;&gt;&lt;div style=&quot;font-family: &amp;#34;consolas&amp;#34; , &amp;#34;courier new&amp;#34; , monospace ; line-height: 22px&quot;&gt;&lt;div style=&quot;font-family: &amp;#34;consolas&amp;#34; , &amp;#34;courier new&amp;#34; , monospace ; line-height: 22px&quot;&gt;&lt;div style=&quot;font-family: &amp;#34;consolas&amp;#34; , &amp;#34;courier new&amp;#34; , monospace ; line-height: 22px&quot;&gt;&lt;div style=&quot;font-family: &amp;#34;consolas&amp;#34; , &amp;#34;courier new&amp;#34; , monospace ; line-height: 22px&quot;&gt;&lt;font color=&quot;#aa3731&quot;&gt;&lt;b&gt;Filter&lt;/b&gt;&lt;/font&gt;&lt;/div&gt;&lt;/div&gt;&lt;/div&gt;&lt;/div&gt;&lt;/div&gt;&lt;/div&gt;" style="html=1;points=[];perimeter=orthogonalPerimeter;" parent="1" vertex="1">
          <mxGeometry x="1225" y="1151" width="10" height="110" as="geometry" />
        </mxCell>
        <mxCell id="wCJARNpQgVaEjXj_w9Yw-99" value="" style="endArrow=open;endFill=1;endSize=12;html=1;" parent="1" edge="1">
          <mxGeometry width="160" relative="1" as="geometry">
            <mxPoint x="-420" y="1150" as="sourcePoint" />
            <mxPoint x="1230" y="1150" as="targetPoint" />
          </mxGeometry>
        </mxCell>
        <mxCell id="wCJARNpQgVaEjXj_w9Yw-109" value="" style="endArrow=open;endFill=1;endSize=12;html=1;" parent="1" edge="1">
          <mxGeometry width="160" relative="1" as="geometry">
            <mxPoint x="475" y="1241" as="sourcePoint" />
            <mxPoint x="1220" y="1241" as="targetPoint" />
          </mxGeometry>
        </mxCell>
        <mxCell id="wCJARNpQgVaEjXj_w9Yw-110" value="" style="endArrow=open;endFill=1;endSize=12;html=1;entryX=1.1;entryY=0.038;entryDx=0;entryDy=0;entryPerimeter=0;" parent="1" target="wCJARNpQgVaEjXj_w9Yw-112" edge="1">
          <mxGeometry width="160" relative="1" as="geometry">
            <mxPoint x="1215" y="1171" as="sourcePoint" />
            <mxPoint x="990" y="1171" as="targetPoint" />
          </mxGeometry>
        </mxCell>
        <mxCell id="wCJARNpQgVaEjXj_w9Yw-111" value="" style="endArrow=open;endFill=1;endSize=12;html=1;exitX=0.1;exitY=1;exitDx=0;exitDy=0;exitPerimeter=0;" parent="1" source="wCJARNpQgVaEjXj_w9Yw-98" edge="1">
          <mxGeometry width="160" relative="1" as="geometry">
            <mxPoint x="1285" y="1260" as="sourcePoint" />
            <mxPoint x="-410" y="1261" as="targetPoint" />
          </mxGeometry>
        </mxCell>
        <mxCell id="wCJARNpQgVaEjXj_w9Yw-112" value="&lt;div style=&quot;background-color: rgb(245 , 245 , 245) ; font-family: &amp;#34;consolas&amp;#34; , &amp;#34;courier new&amp;#34; , monospace ; font-size: 16px ; line-height: 22px&quot;&gt;&lt;div style=&quot;font-family: &amp;#34;consolas&amp;#34; , &amp;#34;courier new&amp;#34; , monospace ; line-height: 22px&quot;&gt;&lt;div style=&quot;font-family: &amp;#34;consolas&amp;#34; , &amp;#34;courier new&amp;#34; , monospace ; line-height: 22px&quot;&gt;&lt;div style=&quot;font-family: &amp;#34;consolas&amp;#34; , &amp;#34;courier new&amp;#34; , monospace ; line-height: 22px&quot;&gt;&lt;div style=&quot;font-family: &amp;#34;consolas&amp;#34; , &amp;#34;courier new&amp;#34; , monospace ; line-height: 22px&quot;&gt;&lt;div style=&quot;font-family: &amp;#34;consolas&amp;#34; , &amp;#34;courier new&amp;#34; , monospace ; line-height: 22px&quot;&gt;&lt;div style=&quot;color: rgb(51 , 51 , 51) ; font-family: &amp;#34;consolas&amp;#34; , &amp;#34;courier new&amp;#34; , monospace ; line-height: 22px&quot;&gt;&lt;span style=&quot;color: #aa3731 ; font-weight: bold&quot;&gt;checkSugUnityPolicy&lt;/span&gt;&lt;/div&gt;&lt;/div&gt;&lt;/div&gt;&lt;/div&gt;&lt;/div&gt;&lt;/div&gt;&lt;/div&gt;" style="html=1;points=[];perimeter=orthogonalPerimeter;" parent="1" vertex="1">
          <mxGeometry x="455" y="1166" width="10" height="80" as="geometry" />
        </mxCell>
        <mxCell id="wCJARNpQgVaEjXj_w9Yw-113" value="" style="html=1;verticalAlign=bottom;endArrow=none;endSize=8;strokeColor=#ff0000;startArrow=none;exitX=0.6;exitY=1.018;exitDx=0;exitDy=0;exitPerimeter=0;" parent="1" source="wCJARNpQgVaEjXj_w9Yw-52" target="wCJARNpQgVaEjXj_w9Yw-112" edge="1">
          <mxGeometry relative="1" as="geometry">
            <mxPoint x="461" y="1720" as="targetPoint" />
            <mxPoint x="461" y="781.98" as="sourcePoint" />
          </mxGeometry>
        </mxCell>
        <mxCell id="wCJARNpQgVaEjXj_w9Yw-95" value="&lt;div style=&quot;background-color: rgb(245 , 245 , 245) ; font-family: &amp;#34;consolas&amp;#34; , &amp;#34;courier new&amp;#34; , monospace ; font-size: 16px ; line-height: 22px&quot;&gt;&lt;div style=&quot;font-family: &amp;#34;consolas&amp;#34; , &amp;#34;courier new&amp;#34; , monospace ; line-height: 22px&quot;&gt;&lt;div style=&quot;font-family: &amp;#34;consolas&amp;#34; , &amp;#34;courier new&amp;#34; , monospace ; line-height: 22px&quot;&gt;&lt;div style=&quot;font-family: &amp;#34;consolas&amp;#34; , &amp;#34;courier new&amp;#34; , monospace ; line-height: 22px&quot;&gt;&lt;div style=&quot;color: rgb(51 , 51 , 51) ; font-family: &amp;#34;consolas&amp;#34; , &amp;#34;courier new&amp;#34; , monospace ; line-height: 22px&quot;&gt;&lt;div style=&quot;font-family: &amp;#34;consolas&amp;#34; , &amp;#34;courier new&amp;#34; , monospace ; line-height: 22px&quot;&gt;&lt;span style=&quot;color: #aa3731 ; font-weight: bold&quot;&gt;DoSort&lt;/span&gt;&lt;/div&gt;&lt;/div&gt;&lt;div style=&quot;font-family: &amp;#34;consolas&amp;#34; , &amp;#34;courier new&amp;#34; , monospace ; line-height: 22px&quot;&gt;&lt;font color=&quot;#aa3731&quot;&gt;&lt;b&gt;排序逻辑&lt;/b&gt;&lt;/font&gt;&lt;/div&gt;&lt;/div&gt;&lt;/div&gt;&lt;/div&gt;&lt;/div&gt;" style="html=1;points=[];perimeter=orthogonalPerimeter;" parent="1" vertex="1">
          <mxGeometry x="-425" y="1340" width="10" height="110" as="geometry" />
        </mxCell>
        <mxCell id="wCJARNpQgVaEjXj_w9Yw-114" value="" style="edgeStyle=orthogonalEdgeStyle;html=1;verticalAlign=bottom;endArrow=none;endSize=8;strokeColor=#ff0000;startArrow=none;" parent="1" source="wCJARNpQgVaEjXj_w9Yw-91" target="wCJARNpQgVaEjXj_w9Yw-95" edge="1">
          <mxGeometry relative="1" as="geometry">
            <mxPoint x="-420" y="1740" as="targetPoint" />
            <mxPoint x="-420" y="1310" as="sourcePoint" />
          </mxGeometry>
        </mxCell>
        <mxCell id="wCJARNpQgVaEjXj_w9Yw-9" value="&lt;div style=&quot;color: rgb(51 , 51 , 51) ; background-color: rgb(245 , 245 , 245) ; font-family: &amp;#34;consolas&amp;#34; , &amp;#34;courier new&amp;#34; , monospace ; font-size: 16px ; line-height: 22px&quot;&gt;&lt;span style=&quot;color: #aa3731 ; font-weight: bold&quot;&gt;GetSugConf&lt;/span&gt;&lt;/div&gt;&lt;div style=&quot;color: rgb(51 , 51 , 51) ; background-color: rgb(245 , 245 , 245) ; font-family: &amp;#34;consolas&amp;#34; , &amp;#34;courier new&amp;#34; , monospace ; font-size: 16px ; line-height: 22px&quot;&gt;&lt;span style=&quot;color: #aa3731 ; font-weight: bold&quot;&gt;获取db里面的配置信息&lt;/span&gt;&lt;/div&gt;" style="html=1;points=[];perimeter=orthogonalPerimeter;" parent="1" vertex="1">
          <mxGeometry x="-425" y="370" width="10" height="110" as="geometry" />
        </mxCell>
        <mxCell id="wCJARNpQgVaEjXj_w9Yw-115" value="" style="edgeStyle=orthogonalEdgeStyle;html=1;verticalAlign=bottom;endArrow=none;endSize=8;strokeColor=#ff0000;" parent="1" source="wCJARNpQgVaEjXj_w9Yw-1" target="wCJARNpQgVaEjXj_w9Yw-9" edge="1">
          <mxGeometry relative="1" as="geometry">
            <mxPoint x="-420" y="520" as="targetPoint" />
            <mxPoint x="-420" y="340" as="sourcePoint" />
          </mxGeometry>
        </mxCell>
        <mxCell id="wCJARNpQgVaEjXj_w9Yw-117" value="&lt;span style=&quot;color: rgb(122 , 62 , 157) ; font-family: &amp;#34;consolas&amp;#34; , &amp;#34;courier new&amp;#34; , monospace ; font-size: 16px ; font-weight: 700 ; background-color: rgb(245 , 245 , 245)&quot;&gt;SortPlugin&lt;/span&gt;" style="rounded=1;whiteSpace=wrap;html=1;arcSize=40;fontColor=#000000;fillColor=#ffffc0;strokeColor=#ff0000;" parent="1" vertex="1">
          <mxGeometry x="1340" y="300" width="120" height="40" as="geometry" />
        </mxCell>
        <mxCell id="wCJARNpQgVaEjXj_w9Yw-118" value="" style="edgeStyle=orthogonalEdgeStyle;html=1;verticalAlign=bottom;endArrow=open;endSize=8;strokeColor=#ff0000;startArrow=none;" parent="1" source="wCJARNpQgVaEjXj_w9Yw-121" edge="1">
          <mxGeometry relative="1" as="geometry">
            <mxPoint x="1400" y="1630" as="targetPoint" />
          </mxGeometry>
        </mxCell>
        <mxCell id="wCJARNpQgVaEjXj_w9Yw-119" value="&lt;span style=&quot;color: rgb(51 , 51 , 51) ; font-family: &amp;#34;consolas&amp;#34; , &amp;#34;courier new&amp;#34; , monospace ; background-color: rgb(245 , 245 , 245)&quot;&gt;&lt;font style=&quot;font-size: 18px&quot;&gt;NNSugObjProxy&lt;/font&gt;&lt;/span&gt;" style="rounded=1;whiteSpace=wrap;html=1;arcSize=40;fontColor=#000000;fillColor=#ffffc0;strokeColor=#ff0000;" parent="1" vertex="1">
          <mxGeometry x="1520" y="300" width="120" height="40" as="geometry" />
        </mxCell>
        <mxCell id="wCJARNpQgVaEjXj_w9Yw-120" value="" style="edgeStyle=orthogonalEdgeStyle;html=1;verticalAlign=bottom;endArrow=open;endSize=8;strokeColor=#ff0000;startArrow=none;" parent="1" source="wCJARNpQgVaEjXj_w9Yw-123" edge="1">
          <mxGeometry relative="1" as="geometry">
            <mxPoint x="1580" y="1630" as="targetPoint" />
          </mxGeometry>
        </mxCell>
        <mxCell id="wCJARNpQgVaEjXj_w9Yw-121" value="&lt;div style=&quot;background-color: rgb(245 , 245 , 245) ; font-family: &amp;#34;consolas&amp;#34; , &amp;#34;courier new&amp;#34; , monospace ; font-size: 16px ; line-height: 22px&quot;&gt;&lt;div style=&quot;font-family: &amp;#34;consolas&amp;#34; , &amp;#34;courier new&amp;#34; , monospace ; line-height: 22px&quot;&gt;&lt;div style=&quot;font-family: &amp;#34;consolas&amp;#34; , &amp;#34;courier new&amp;#34; , monospace ; line-height: 22px&quot;&gt;&lt;div style=&quot;font-family: &amp;#34;consolas&amp;#34; , &amp;#34;courier new&amp;#34; , monospace ; line-height: 22px&quot;&gt;&lt;div style=&quot;font-family: &amp;#34;consolas&amp;#34; , &amp;#34;courier new&amp;#34; , monospace ; line-height: 22px&quot;&gt;&lt;div style=&quot;font-family: &amp;#34;consolas&amp;#34; , &amp;#34;courier new&amp;#34; , monospace ; line-height: 22px&quot;&gt;&lt;font color=&quot;#aa3731&quot;&gt;&lt;b&gt;Sort&lt;/b&gt;&lt;/font&gt;&lt;/div&gt;&lt;/div&gt;&lt;/div&gt;&lt;/div&gt;&lt;/div&gt;&lt;/div&gt;" style="html=1;points=[];perimeter=orthogonalPerimeter;" parent="1" vertex="1">
          <mxGeometry x="1395" y="1330" width="10" height="110" as="geometry" />
        </mxCell>
        <mxCell id="wCJARNpQgVaEjXj_w9Yw-122" value="" style="edgeStyle=orthogonalEdgeStyle;html=1;verticalAlign=bottom;endArrow=none;endSize=8;strokeColor=#ff0000;" parent="1" source="wCJARNpQgVaEjXj_w9Yw-117" target="wCJARNpQgVaEjXj_w9Yw-121" edge="1">
          <mxGeometry relative="1" as="geometry">
            <mxPoint x="1400" y="1750" as="targetPoint" />
            <mxPoint x="1400" y="340" as="sourcePoint" />
          </mxGeometry>
        </mxCell>
        <mxCell id="wCJARNpQgVaEjXj_w9Yw-123" value="&lt;div style=&quot;background-color: rgb(245 , 245 , 245) ; font-family: &amp;#34;consolas&amp;#34; , &amp;#34;courier new&amp;#34; , monospace ; font-size: 16px ; line-height: 22px&quot;&gt;&lt;div style=&quot;font-family: &amp;#34;consolas&amp;#34; , &amp;#34;courier new&amp;#34; , monospace ; line-height: 22px&quot;&gt;&lt;div style=&quot;font-family: &amp;#34;consolas&amp;#34; , &amp;#34;courier new&amp;#34; , monospace ; line-height: 22px&quot;&gt;&lt;div style=&quot;font-family: &amp;#34;consolas&amp;#34; , &amp;#34;courier new&amp;#34; , monospace ; line-height: 22px&quot;&gt;&lt;div style=&quot;color: rgb(51 , 51 , 51) ; font-family: &amp;#34;consolas&amp;#34; , &amp;#34;courier new&amp;#34; , monospace ; line-height: 22px&quot;&gt;&lt;div style=&quot;font-family: &amp;#34;consolas&amp;#34; , &amp;#34;courier new&amp;#34; , monospace ; line-height: 22px&quot;&gt;&lt;div style=&quot;font-family: &amp;#34;consolas&amp;#34; , &amp;#34;courier new&amp;#34; , monospace ; line-height: 22px&quot;&gt;&lt;span style=&quot;color: #aa3731 ; font-weight: bold&quot;&gt;getQBNNShowSugResult&lt;/span&gt;&lt;/div&gt;&lt;/div&gt;&lt;/div&gt;&lt;/div&gt;&lt;/div&gt;&lt;/div&gt;&lt;/div&gt;" style="html=1;points=[];perimeter=orthogonalPerimeter;" parent="1" vertex="1">
          <mxGeometry x="1575" y="1330" width="10" height="110" as="geometry" />
        </mxCell>
        <mxCell id="wCJARNpQgVaEjXj_w9Yw-124" value="" style="edgeStyle=orthogonalEdgeStyle;html=1;verticalAlign=bottom;endArrow=none;endSize=8;strokeColor=#ff0000;" parent="1" source="wCJARNpQgVaEjXj_w9Yw-119" target="wCJARNpQgVaEjXj_w9Yw-123" edge="1">
          <mxGeometry relative="1" as="geometry">
            <mxPoint x="1580" y="1770" as="targetPoint" />
            <mxPoint x="1580" y="340" as="sourcePoint" />
          </mxGeometry>
        </mxCell>
        <mxCell id="wCJARNpQgVaEjXj_w9Yw-125" value="" style="endArrow=open;endFill=1;endSize=12;html=1;" parent="1" edge="1">
          <mxGeometry width="160" relative="1" as="geometry">
            <mxPoint x="-400.00000000000045" y="1340" as="sourcePoint" />
            <mxPoint x="1390" y="1340" as="targetPoint" />
          </mxGeometry>
        </mxCell>
        <mxCell id="wCJARNpQgVaEjXj_w9Yw-127" value="" style="endArrow=open;endFill=1;endSize=12;html=1;" parent="1" edge="1">
          <mxGeometry width="160" relative="1" as="geometry">
            <mxPoint x="1412.9999999999995" y="1330.03" as="sourcePoint" />
            <mxPoint x="1570" y="1330" as="targetPoint" />
          </mxGeometry>
        </mxCell>
        <mxCell id="wCJARNpQgVaEjXj_w9Yw-128" value="" style="endArrow=open;endFill=1;endSize=12;html=1;exitX=0.1;exitY=1;exitDx=0;exitDy=0;exitPerimeter=0;" parent="1" edge="1">
          <mxGeometry width="160" relative="1" as="geometry">
            <mxPoint x="1376" y="1438.82" as="sourcePoint" />
            <mxPoint x="-410" y="1440" as="targetPoint" />
          </mxGeometry>
        </mxCell>
        <mxCell id="wCJARNpQgVaEjXj_w9Yw-129" value="" style="endArrow=open;endFill=1;endSize=12;html=1;" parent="1" edge="1">
          <mxGeometry width="160" relative="1" as="geometry">
            <mxPoint x="1570" y="1440" as="sourcePoint" />
            <mxPoint x="1414.9999999999995" y="1440" as="targetPoint" />
          </mxGeometry>
        </mxCell>
        <mxCell id="wCJARNpQgVaEjXj_w9Yw-130" value="&lt;div style=&quot;background-color: rgb(245 , 245 , 245) ; font-family: &amp;#34;consolas&amp;#34; , &amp;#34;courier new&amp;#34; , monospace ; font-size: 16px ; line-height: 22px&quot;&gt;&lt;div style=&quot;font-family: &amp;#34;consolas&amp;#34; , &amp;#34;courier new&amp;#34; , monospace ; line-height: 22px&quot;&gt;&lt;div style=&quot;font-family: &amp;#34;consolas&amp;#34; , &amp;#34;courier new&amp;#34; , monospace ; line-height: 22px&quot;&gt;&lt;div style=&quot;font-family: &amp;#34;consolas&amp;#34; , &amp;#34;courier new&amp;#34; , monospace ; line-height: 22px&quot;&gt;&lt;div style=&quot;color: rgb(51 , 51 , 51) ; font-family: &amp;#34;consolas&amp;#34; , &amp;#34;courier new&amp;#34; , monospace ; line-height: 22px&quot;&gt;&lt;div style=&quot;font-family: &amp;#34;consolas&amp;#34; , &amp;#34;courier new&amp;#34; , monospace ; line-height: 22px&quot;&gt;&lt;div style=&quot;font-family: &amp;#34;consolas&amp;#34; , &amp;#34;courier new&amp;#34; , monospace ; line-height: 22px&quot;&gt;&lt;span style=&quot;color: #aa3731 ; font-weight: bold&quot;&gt;DoResponse&lt;/span&gt;&lt;/div&gt;&lt;/div&gt;&lt;/div&gt;&lt;/div&gt;&lt;/div&gt;&lt;/div&gt;&lt;/div&gt;" style="html=1;points=[];perimeter=orthogonalPerimeter;" parent="1" vertex="1">
          <mxGeometry x="-425" y="1490" width="10" height="110" as="geometry" />
        </mxCell>
        <mxCell id="wCJARNpQgVaEjXj_w9Yw-131" value="" style="edgeStyle=orthogonalEdgeStyle;html=1;verticalAlign=bottom;endArrow=none;endSize=8;strokeColor=#ff0000;startArrow=none;" parent="1" source="wCJARNpQgVaEjXj_w9Yw-95" target="wCJARNpQgVaEjXj_w9Yw-130" edge="1">
          <mxGeometry relative="1" as="geometry">
            <mxPoint x="-420.00000000000045" y="1770" as="targetPoint" />
            <mxPoint x="-420.00000000000045" y="1450" as="sourcePoint" />
          </mxGeometry>
        </mxCell>
      </root>
    </mxGraphModel>
  </diagram>
  <diagram id="mlXzjzE0PrO9fWmoQknT" name="Page-2">
    <mxGraphModel dx="2049" dy="1154" grid="1" gridSize="10" guides="1" tooltips="1" connect="1" arrows="1" fold="1" page="1" pageScale="1" pageWidth="827" pageHeight="1169" math="0" shadow="0">
      <root>
        <mxCell id="rmzfLeiZsfjpxB70aSqU-0" />
        <mxCell id="rmzfLeiZsfjpxB70aSqU-1" parent="rmzfLeiZsfjpxB70aSqU-0" />
        <mxCell id="Twx_EomXe9ckOWpJaq1F-0" value="&lt;div style=&quot;color: rgb(51 , 51 , 51) ; background-color: rgb(245 , 245 , 245) ; font-family: &amp;#34;consolas&amp;#34; , &amp;#34;courier new&amp;#34; , monospace ; font-size: 16px ; line-height: 22px&quot;&gt;&lt;span style=&quot;color: #7a3e9d ; font-weight: bold&quot;&gt;RecallImp&lt;/span&gt;&lt;/div&gt;" style="rounded=1;whiteSpace=wrap;html=1;arcSize=40;fontColor=#000000;fillColor=#ffffc0;strokeColor=#ff0000;" vertex="1" parent="rmzfLeiZsfjpxB70aSqU-1">
          <mxGeometry x="80" y="190" width="120" height="40" as="geometry" />
        </mxCell>
        <mxCell id="Twx_EomXe9ckOWpJaq1F-1" value="" style="edgeStyle=orthogonalEdgeStyle;html=1;verticalAlign=bottom;endArrow=open;endSize=8;strokeColor=#ff0000;startArrow=none;" edge="1" source="uEZ7wz5AFFrci8B15NaH-32" parent="rmzfLeiZsfjpxB70aSqU-1">
          <mxGeometry relative="1" as="geometry">
            <mxPoint x="140" y="1320" as="targetPoint" />
          </mxGeometry>
        </mxCell>
        <mxCell id="vX4gcuKtTwUeXfSgHQk5-1" value="" style="edgeStyle=orthogonalEdgeStyle;html=1;verticalAlign=bottom;endArrow=none;endSize=8;strokeColor=#ff0000;" edge="1" parent="rmzfLeiZsfjpxB70aSqU-1" source="Twx_EomXe9ckOWpJaq1F-0">
          <mxGeometry relative="1" as="geometry">
            <mxPoint x="140" y="280" as="targetPoint" />
            <mxPoint x="140" y="230" as="sourcePoint" />
          </mxGeometry>
        </mxCell>
        <mxCell id="qfHAP6IjWo1X9ooxiprN-1" value="&lt;div style=&quot;color: rgb(51 , 51 , 51) ; background-color: rgb(245 , 245 , 245) ; font-family: &amp;#34;consolas&amp;#34; , &amp;#34;courier new&amp;#34; , monospace ; font-size: 16px ; line-height: 22px&quot;&gt;&lt;b style=&quot;background-color: rgb(248 , 249 , 250) ; color: rgb(122 , 62 , 157)&quot;&gt;context_初始化赋值&lt;/b&gt;&lt;br&gt;&lt;/div&gt;" style="html=1;points=[];perimeter=orthogonalPerimeter;" vertex="1" parent="rmzfLeiZsfjpxB70aSqU-1">
          <mxGeometry x="135" y="270" width="10" height="110" as="geometry" />
        </mxCell>
        <mxCell id="qfHAP6IjWo1X9ooxiprN-3" value="&lt;div style=&quot;color: rgb(51 , 51 , 51) ; background-color: rgb(245 , 245 , 245) ; font-family: &amp;#34;consolas&amp;#34; , &amp;#34;courier new&amp;#34; , monospace ; font-size: 16px ; line-height: 22px&quot;&gt;&lt;b style=&quot;background-color: rgb(248 , 249 , 250) ; color: rgb(122 , 62 , 157)&quot;&gt;process&lt;/b&gt;&lt;br&gt;&lt;/div&gt;" style="html=1;points=[];perimeter=orthogonalPerimeter;" vertex="1" parent="rmzfLeiZsfjpxB70aSqU-1">
          <mxGeometry x="135" y="440" width="10" height="110" as="geometry" />
        </mxCell>
        <mxCell id="qfHAP6IjWo1X9ooxiprN-4" value="" style="edgeStyle=orthogonalEdgeStyle;html=1;verticalAlign=bottom;endArrow=none;endSize=8;strokeColor=#ff0000;startArrow=none;" edge="1" parent="rmzfLeiZsfjpxB70aSqU-1" source="qfHAP6IjWo1X9ooxiprN-1">
          <mxGeometry relative="1" as="geometry">
            <mxPoint x="140" y="510" as="targetPoint" />
            <mxPoint x="140" y="380" as="sourcePoint" />
          </mxGeometry>
        </mxCell>
        <mxCell id="qfHAP6IjWo1X9ooxiprN-6" value="&lt;font style=&quot;font-size: 24px&quot;&gt;yes&lt;/font&gt;" style="edgeStyle=orthogonalEdgeStyle;html=1;align=left;verticalAlign=bottom;endArrow=open;endSize=8;strokeColor=#ff0000;" edge="1" source="qfHAP6IjWo1X9ooxiprN-5" parent="rmzfLeiZsfjpxB70aSqU-1">
          <mxGeometry x="-0.75" y="5" relative="1" as="geometry">
            <mxPoint x="420" y="618" as="targetPoint" />
            <mxPoint as="offset" />
          </mxGeometry>
        </mxCell>
        <mxCell id="qfHAP6IjWo1X9ooxiprN-7" value="&lt;font style=&quot;font-size: 24px&quot;&gt;no&lt;/font&gt;" style="edgeStyle=orthogonalEdgeStyle;html=1;align=left;verticalAlign=top;endArrow=open;endSize=8;strokeColor=#ff0000;" edge="1" source="qfHAP6IjWo1X9ooxiprN-5" parent="rmzfLeiZsfjpxB70aSqU-1">
          <mxGeometry x="-0.686" y="20" relative="1" as="geometry">
            <mxPoint x="900" y="1040" as="targetPoint" />
            <Array as="points">
              <mxPoint x="140" y="1040" />
            </Array>
            <mxPoint as="offset" />
          </mxGeometry>
        </mxCell>
        <mxCell id="qfHAP6IjWo1X9ooxiprN-5" value="&lt;font style=&quot;font-size: 18px&quot;&gt;cache_able&lt;/font&gt;" style="rhombus;whiteSpace=wrap;html=1;fillColor=#ffffc0;strokeColor=#ff0000;" vertex="1" parent="rmzfLeiZsfjpxB70aSqU-1">
          <mxGeometry x="85" y="585" width="110" height="65" as="geometry" />
        </mxCell>
        <mxCell id="qfHAP6IjWo1X9ooxiprN-8" value="" style="edgeStyle=orthogonalEdgeStyle;html=1;verticalAlign=bottom;endArrow=none;endSize=8;strokeColor=#ff0000;startArrow=none;" edge="1" parent="rmzfLeiZsfjpxB70aSqU-1" source="qfHAP6IjWo1X9ooxiprN-3" target="qfHAP6IjWo1X9ooxiprN-5">
          <mxGeometry relative="1" as="geometry">
            <mxPoint x="140" y="1150" as="targetPoint" />
            <mxPoint x="140" y="550" as="sourcePoint" />
          </mxGeometry>
        </mxCell>
        <mxCell id="qfHAP6IjWo1X9ooxiprN-9" value="&lt;div style=&quot;color: rgb(51 , 51 , 51) ; background-color: rgb(245 , 245 , 245) ; font-family: &amp;#34;consolas&amp;#34; , &amp;#34;courier new&amp;#34; , monospace ; font-size: 16px ; line-height: 22px&quot;&gt;&lt;span style=&quot;color: #7a3e9d ; font-weight: bold&quot;&gt;SugCacheMgr&lt;/span&gt;&lt;/div&gt;" style="rounded=1;whiteSpace=wrap;html=1;arcSize=40;fontColor=#000000;fillColor=#ffffc0;strokeColor=#ff0000;" vertex="1" parent="rmzfLeiZsfjpxB70aSqU-1">
          <mxGeometry x="380" y="190" width="120" height="40" as="geometry" />
        </mxCell>
        <mxCell id="qfHAP6IjWo1X9ooxiprN-10" value="" style="edgeStyle=orthogonalEdgeStyle;html=1;verticalAlign=bottom;endArrow=open;endSize=8;strokeColor=#ff0000;startArrow=none;" edge="1" source="qfHAP6IjWo1X9ooxiprN-13" parent="rmzfLeiZsfjpxB70aSqU-1">
          <mxGeometry relative="1" as="geometry">
            <mxPoint x="440" y="1320" as="targetPoint" />
          </mxGeometry>
        </mxCell>
        <mxCell id="qfHAP6IjWo1X9ooxiprN-11" value="&lt;div style=&quot;color: rgb(51 , 51 , 51) ; background-color: rgb(245 , 245 , 245) ; font-family: &amp;#34;consolas&amp;#34; , &amp;#34;courier new&amp;#34; , monospace ; font-size: 16px ; line-height: 22px&quot;&gt;&lt;div style=&quot;font-family: &amp;#34;consolas&amp;#34; , &amp;#34;courier new&amp;#34; , monospace ; line-height: 22px&quot;&gt;TCommCacheSug&lt;/div&gt;&lt;/div&gt;" style="rounded=1;whiteSpace=wrap;html=1;arcSize=40;fontColor=#000000;fillColor=#ffffc0;strokeColor=#ff0000;" vertex="1" parent="rmzfLeiZsfjpxB70aSqU-1">
          <mxGeometry x="600" y="190" width="120" height="40" as="geometry" />
        </mxCell>
        <mxCell id="qfHAP6IjWo1X9ooxiprN-12" value="" style="edgeStyle=orthogonalEdgeStyle;html=1;verticalAlign=bottom;endArrow=open;endSize=8;strokeColor=#ff0000;startArrow=none;" edge="1" parent="rmzfLeiZsfjpxB70aSqU-1" source="qfHAP6IjWo1X9ooxiprN-23">
          <mxGeometry relative="1" as="geometry">
            <mxPoint x="660" y="1320" as="targetPoint" />
          </mxGeometry>
        </mxCell>
        <mxCell id="qfHAP6IjWo1X9ooxiprN-13" value="&lt;div style=&quot;color: rgb(51 , 51 , 51) ; background-color: rgb(245 , 245 , 245) ; font-family: &amp;#34;consolas&amp;#34; , &amp;#34;courier new&amp;#34; , monospace ; font-size: 16px ; line-height: 22px&quot;&gt;&lt;div style=&quot;font-family: &amp;#34;consolas&amp;#34; , &amp;#34;courier new&amp;#34; , monospace ; line-height: 22px&quot;&gt;&lt;span style=&quot;color: #aa3731 ; font-weight: bold&quot;&gt;DoGetSugCache&lt;/span&gt;&lt;/div&gt;&lt;/div&gt;" style="html=1;points=[];perimeter=orthogonalPerimeter;" vertex="1" parent="rmzfLeiZsfjpxB70aSqU-1">
          <mxGeometry x="435" y="585" width="10" height="405" as="geometry" />
        </mxCell>
        <mxCell id="qfHAP6IjWo1X9ooxiprN-14" value="" style="edgeStyle=orthogonalEdgeStyle;html=1;verticalAlign=bottom;endArrow=none;endSize=8;strokeColor=#ff0000;" edge="1" parent="rmzfLeiZsfjpxB70aSqU-1" source="qfHAP6IjWo1X9ooxiprN-9" target="qfHAP6IjWo1X9ooxiprN-13">
          <mxGeometry relative="1" as="geometry">
            <mxPoint x="440" y="1150" as="targetPoint" />
            <mxPoint x="440" y="150" as="sourcePoint" />
          </mxGeometry>
        </mxCell>
        <mxCell id="qfHAP6IjWo1X9ooxiprN-15" value="&lt;div style=&quot;color: rgb(51 , 51 , 51) ; background-color: rgb(245 , 245 , 245) ; font-family: &amp;#34;consolas&amp;#34; , &amp;#34;courier new&amp;#34; , monospace ; line-height: 22px&quot;&gt;&lt;div style=&quot;font-family: &amp;#34;consolas&amp;#34; , &amp;#34;courier new&amp;#34; , monospace ; line-height: 22px&quot;&gt;&lt;div style=&quot;font-family: &amp;#34;consolas&amp;#34; , &amp;#34;courier new&amp;#34; , monospace ; line-height: 22px&quot;&gt;&lt;span style=&quot;color: rgb(170 , 55 , 49) ; font-weight: bold&quot;&gt;&lt;font style=&quot;font-size: 18px&quot;&gt;promise_get&lt;/font&gt;&lt;/span&gt;&lt;/div&gt;&lt;/div&gt;&lt;/div&gt;" style="html=1;points=[];perimeter=orthogonalPerimeter;" vertex="1" parent="rmzfLeiZsfjpxB70aSqU-1">
          <mxGeometry x="655" y="585" width="10" height="110" as="geometry" />
        </mxCell>
        <mxCell id="qfHAP6IjWo1X9ooxiprN-16" value="" style="edgeStyle=orthogonalEdgeStyle;html=1;verticalAlign=bottom;endArrow=none;endSize=8;strokeColor=#ff0000;" edge="1" parent="rmzfLeiZsfjpxB70aSqU-1" source="qfHAP6IjWo1X9ooxiprN-11" target="qfHAP6IjWo1X9ooxiprN-15">
          <mxGeometry relative="1" as="geometry">
            <mxPoint x="660" y="1160" as="targetPoint" />
            <mxPoint x="660" y="150" as="sourcePoint" />
          </mxGeometry>
        </mxCell>
        <mxCell id="qfHAP6IjWo1X9ooxiprN-19" value="&lt;div style=&quot;background-color: rgb(245 , 245 , 245) ; font-family: &amp;#34;consolas&amp;#34; , &amp;#34;courier new&amp;#34; , monospace ; line-height: 22px&quot;&gt;&lt;div style=&quot;font-family: &amp;#34;consolas&amp;#34; , &amp;#34;courier new&amp;#34; , monospace ; line-height: 22px&quot;&gt;&lt;div style=&quot;font-family: &amp;#34;consolas&amp;#34; , &amp;#34;courier new&amp;#34; , monospace ; line-height: 22px&quot;&gt;&lt;font color=&quot;#aa3731&quot;&gt;&lt;span style=&quot;font-size: 18px&quot;&gt;&lt;b&gt;共享内存获取内存, 校验数据有效性&lt;/b&gt;&lt;/span&gt;&lt;/font&gt;&lt;/div&gt;&lt;div style=&quot;font-family: &amp;#34;consolas&amp;#34; , &amp;#34;courier new&amp;#34; , monospace ; line-height: 22px&quot;&gt;&lt;font color=&quot;#aa3731&quot;&gt;&lt;span style=&quot;font-size: 18px&quot;&gt;&lt;b&gt;同时也会更新缓存&lt;/b&gt;&lt;/span&gt;&lt;/font&gt;&lt;/div&gt;&lt;/div&gt;&lt;/div&gt;" style="html=1;points=[];perimeter=orthogonalPerimeter;" vertex="1" parent="rmzfLeiZsfjpxB70aSqU-1">
          <mxGeometry x="655" y="730" width="10" height="110" as="geometry" />
        </mxCell>
        <mxCell id="qfHAP6IjWo1X9ooxiprN-20" value="" style="edgeStyle=orthogonalEdgeStyle;html=1;verticalAlign=bottom;endArrow=none;endSize=8;strokeColor=#ff0000;startArrow=none;" edge="1" parent="rmzfLeiZsfjpxB70aSqU-1" source="qfHAP6IjWo1X9ooxiprN-15" target="qfHAP6IjWo1X9ooxiprN-19">
          <mxGeometry relative="1" as="geometry">
            <mxPoint x="660" y="1160" as="targetPoint" />
            <mxPoint x="660" y="695" as="sourcePoint" />
          </mxGeometry>
        </mxCell>
        <mxCell id="qfHAP6IjWo1X9ooxiprN-23" value="&lt;div style=&quot;color: rgb(51 , 51 , 51) ; background-color: rgb(245 , 245 , 245) ; font-family: &amp;#34;consolas&amp;#34; , &amp;#34;courier new&amp;#34; , monospace ; line-height: 22px&quot;&gt;&lt;div style=&quot;font-family: &amp;#34;consolas&amp;#34; , &amp;#34;courier new&amp;#34; , monospace ; line-height: 22px&quot;&gt;&lt;div style=&quot;font-family: &amp;#34;consolas&amp;#34; , &amp;#34;courier new&amp;#34; , monospace ; line-height: 22px&quot;&gt;&lt;div style=&quot;font-family: &amp;#34;consolas&amp;#34; , &amp;#34;courier new&amp;#34; , monospace ; font-size: 16px ; line-height: 22px&quot;&gt;&lt;span style=&quot;color: #aa3731 ; font-weight: bold&quot;&gt;HandleCacheData&lt;/span&gt;&lt;/div&gt;&lt;div style=&quot;font-family: &amp;#34;consolas&amp;#34; , &amp;#34;courier new&amp;#34; , monospace ; font-size: 16px ; line-height: 22px&quot;&gt;&lt;span style=&quot;color: #aa3731 ; font-weight: bold&quot;&gt;cache命中率监控&lt;/span&gt;&lt;/div&gt;&lt;div style=&quot;font-family: &amp;#34;consolas&amp;#34; , &amp;#34;courier new&amp;#34; , monospace ; font-size: 16px ; line-height: 22px&quot;&gt;&lt;span style=&quot;color: #aa3731 ; font-weight: bold&quot;&gt;构造回包&lt;/span&gt;&lt;/div&gt;&lt;/div&gt;&lt;/div&gt;&lt;/div&gt;" style="html=1;points=[];perimeter=orthogonalPerimeter;" vertex="1" parent="rmzfLeiZsfjpxB70aSqU-1">
          <mxGeometry x="655" y="880" width="10" height="110" as="geometry" />
        </mxCell>
        <mxCell id="qfHAP6IjWo1X9ooxiprN-24" value="" style="edgeStyle=orthogonalEdgeStyle;html=1;verticalAlign=bottom;endArrow=none;endSize=8;strokeColor=#ff0000;startArrow=none;" edge="1" parent="rmzfLeiZsfjpxB70aSqU-1" source="qfHAP6IjWo1X9ooxiprN-19" target="qfHAP6IjWo1X9ooxiprN-23">
          <mxGeometry relative="1" as="geometry">
            <mxPoint x="660" y="1160" as="targetPoint" />
            <mxPoint x="660" y="920" as="sourcePoint" />
          </mxGeometry>
        </mxCell>
        <mxCell id="9qTAOPkWyOFZtIEM8j5D-0" value="" style="endArrow=open;endFill=1;endSize=12;html=1;" edge="1" parent="rmzfLeiZsfjpxB70aSqU-1">
          <mxGeometry width="160" relative="1" as="geometry">
            <mxPoint x="450" y="590.03" as="sourcePoint" />
            <mxPoint x="650" y="590" as="targetPoint" />
          </mxGeometry>
        </mxCell>
        <mxCell id="uEZ7wz5AFFrci8B15NaH-0" value="" style="endArrow=open;endFill=1;endSize=12;html=1;" edge="1" parent="rmzfLeiZsfjpxB70aSqU-1">
          <mxGeometry width="160" relative="1" as="geometry">
            <mxPoint x="655" y="989" as="sourcePoint" />
            <mxPoint x="450" y="989" as="targetPoint" />
          </mxGeometry>
        </mxCell>
        <mxCell id="uEZ7wz5AFFrci8B15NaH-1" value="&lt;div style=&quot;color: rgb(51 , 51 , 51) ; background-color: rgb(245 , 245 , 245) ; font-family: &amp;#34;consolas&amp;#34; , &amp;#34;courier new&amp;#34; , monospace ; font-size: 16px ; line-height: 22px&quot;&gt;&lt;span style=&quot;color: #aa3731 ; font-weight: bold&quot;&gt;GSugLeafRpcMgr&lt;/span&gt;&lt;/div&gt;" style="rounded=1;whiteSpace=wrap;html=1;arcSize=40;fontColor=#000000;fillColor=#ffffc0;strokeColor=#ff0000;" vertex="1" parent="rmzfLeiZsfjpxB70aSqU-1">
          <mxGeometry x="850" y="190" width="120" height="40" as="geometry" />
        </mxCell>
        <mxCell id="uEZ7wz5AFFrci8B15NaH-2" value="" style="edgeStyle=orthogonalEdgeStyle;html=1;verticalAlign=bottom;endArrow=open;endSize=8;strokeColor=#ff0000;startArrow=none;" edge="1" parent="rmzfLeiZsfjpxB70aSqU-1">
          <mxGeometry relative="1" as="geometry">
            <mxPoint x="910" y="1329" as="targetPoint" />
            <mxPoint x="910" y="1169" as="sourcePoint" />
          </mxGeometry>
        </mxCell>
        <mxCell id="uEZ7wz5AFFrci8B15NaH-6" value="&lt;div style=&quot;color: rgb(51 , 51 , 51) ; background-color: rgb(245 , 245 , 245) ; font-family: &amp;#34;consolas&amp;#34; , &amp;#34;courier new&amp;#34; , monospace ; line-height: 22px&quot;&gt;&lt;div style=&quot;font-family: &amp;#34;consolas&amp;#34; , &amp;#34;courier new&amp;#34; , monospace ; line-height: 22px&quot;&gt;&lt;div style=&quot;font-family: &amp;#34;consolas&amp;#34; , &amp;#34;courier new&amp;#34; , monospace ; line-height: 22px&quot;&gt;&lt;div style=&quot;font-family: &amp;#34;consolas&amp;#34; , &amp;#34;courier new&amp;#34; , monospace ; font-size: 16px ; line-height: 22px&quot;&gt;&lt;div style=&quot;font-family: &amp;#34;consolas&amp;#34; , &amp;#34;courier new&amp;#34; , monospace ; line-height: 22px&quot;&gt;leaf_backend_&lt;/div&gt;&lt;/div&gt;&lt;/div&gt;&lt;/div&gt;&lt;/div&gt;" style="html=1;points=[];perimeter=orthogonalPerimeter;" vertex="1" parent="rmzfLeiZsfjpxB70aSqU-1">
          <mxGeometry x="905" y="1010" width="10" height="170" as="geometry" />
        </mxCell>
        <mxCell id="uEZ7wz5AFFrci8B15NaH-7" value="" style="edgeStyle=orthogonalEdgeStyle;html=1;verticalAlign=bottom;endArrow=none;endSize=8;strokeColor=#ff0000;" edge="1" parent="rmzfLeiZsfjpxB70aSqU-1" source="uEZ7wz5AFFrci8B15NaH-1" target="uEZ7wz5AFFrci8B15NaH-6">
          <mxGeometry relative="1" as="geometry">
            <mxPoint x="910" y="1180" as="targetPoint" />
            <mxPoint x="910" y="150" as="sourcePoint" />
          </mxGeometry>
        </mxCell>
        <mxCell id="uEZ7wz5AFFrci8B15NaH-8" value="" style="shape=curlyBracket;whiteSpace=wrap;html=1;rounded=1;" vertex="1" parent="rmzfLeiZsfjpxB70aSqU-1">
          <mxGeometry x="970" y="1010" width="20" height="170" as="geometry" />
        </mxCell>
        <mxCell id="uEZ7wz5AFFrci8B15NaH-9" value="&lt;div style=&quot;color: rgb(51 , 51 , 51) ; background-color: rgb(245 , 245 , 245) ; font-family: &amp;#34;consolas&amp;#34; , &amp;#34;courier new&amp;#34; , monospace ; font-size: 16px ; line-height: 22px&quot;&gt;kTrpcSug&lt;/div&gt;" style="text;html=1;align=center;verticalAlign=middle;resizable=0;points=[];autosize=1;strokeColor=none;" vertex="1" parent="rmzfLeiZsfjpxB70aSqU-1">
          <mxGeometry x="995" y="995" width="90" height="30" as="geometry" />
        </mxCell>
        <mxCell id="uEZ7wz5AFFrci8B15NaH-10" value="&lt;div style=&quot;color: rgb(51 , 51 , 51) ; background-color: rgb(245 , 245 , 245) ; font-family: &amp;#34;consolas&amp;#34; , &amp;#34;courier new&amp;#34; , monospace ; font-size: 16px ; line-height: 22px&quot;&gt;&lt;div style=&quot;font-family: &amp;#34;consolas&amp;#34; , &amp;#34;courier new&amp;#34; , monospace ; line-height: 22px&quot;&gt;kTafV1Sug&lt;/div&gt;&lt;/div&gt;" style="text;html=1;align=center;verticalAlign=middle;resizable=0;points=[];autosize=1;strokeColor=none;" vertex="1" parent="rmzfLeiZsfjpxB70aSqU-1">
          <mxGeometry x="995" y="1090" width="90" height="30" as="geometry" />
        </mxCell>
        <mxCell id="uEZ7wz5AFFrci8B15NaH-11" value="&lt;div style=&quot;color: rgb(51 , 51 , 51) ; background-color: rgb(245 , 245 , 245) ; font-family: &amp;#34;consolas&amp;#34; , &amp;#34;courier new&amp;#34; , monospace ; font-size: 16px ; line-height: 22px&quot;&gt;&lt;div style=&quot;font-family: &amp;#34;consolas&amp;#34; , &amp;#34;courier new&amp;#34; , monospace ; line-height: 22px&quot;&gt;&lt;div style=&quot;font-family: &amp;#34;consolas&amp;#34; , &amp;#34;courier new&amp;#34; , monospace ; line-height: 22px&quot;&gt;kTafV2Sug&lt;/div&gt;&lt;/div&gt;&lt;/div&gt;" style="text;html=1;align=center;verticalAlign=middle;resizable=0;points=[];autosize=1;strokeColor=none;" vertex="1" parent="rmzfLeiZsfjpxB70aSqU-1">
          <mxGeometry x="995" y="1160" width="90" height="30" as="geometry" />
        </mxCell>
        <mxCell id="uEZ7wz5AFFrci8B15NaH-14" value="&lt;div style=&quot;background-color: rgb(245 , 245 , 245) ; font-family: &amp;#34;consolas&amp;#34; , &amp;#34;courier new&amp;#34; , monospace ; font-size: 16px ; line-height: 22px&quot;&gt;&lt;font color=&quot;#7a3e9d&quot;&gt;&lt;b&gt;SugLeaf&lt;/b&gt;&lt;/font&gt;&lt;/div&gt;" style="rounded=1;whiteSpace=wrap;html=1;arcSize=40;fontColor=#000000;fillColor=#ffffc0;strokeColor=#ff0000;" vertex="1" parent="rmzfLeiZsfjpxB70aSqU-1">
          <mxGeometry x="1110" y="190" width="149" height="40" as="geometry" />
        </mxCell>
        <mxCell id="uEZ7wz5AFFrci8B15NaH-15" value="" style="edgeStyle=orthogonalEdgeStyle;html=1;verticalAlign=bottom;endArrow=open;endSize=8;strokeColor=#ff0000;" edge="1" source="uEZ7wz5AFFrci8B15NaH-14" parent="rmzfLeiZsfjpxB70aSqU-1">
          <mxGeometry relative="1" as="geometry">
            <mxPoint x="1185" y="1320" as="targetPoint" />
          </mxGeometry>
        </mxCell>
        <mxCell id="uEZ7wz5AFFrci8B15NaH-16" value="&lt;div style=&quot;color: rgb(51 , 51 , 51) ; background-color: rgb(245 , 245 , 245) ; font-family: &amp;#34;consolas&amp;#34; , &amp;#34;courier new&amp;#34; , monospace ; line-height: 22px&quot;&gt;&lt;div style=&quot;font-family: &amp;#34;consolas&amp;#34; , &amp;#34;courier new&amp;#34; , monospace ; line-height: 22px&quot;&gt;&lt;div style=&quot;font-family: &amp;#34;consolas&amp;#34; , &amp;#34;courier new&amp;#34; , monospace ; line-height: 22px&quot;&gt;&lt;span style=&quot;color: rgb(170 , 55 , 49) ; font-weight: bold&quot;&gt;&lt;font style=&quot;font-size: 18px&quot;&gt;recall&lt;/font&gt;&lt;/span&gt;&lt;/div&gt;&lt;/div&gt;&lt;/div&gt;" style="html=1;points=[];perimeter=orthogonalPerimeter;" vertex="1" parent="rmzfLeiZsfjpxB70aSqU-1">
          <mxGeometry x="1180" y="930" width="10" height="110" as="geometry" />
        </mxCell>
        <mxCell id="uEZ7wz5AFFrci8B15NaH-17" value="" style="endArrow=open;endFill=1;endSize=12;html=1;" edge="1" parent="rmzfLeiZsfjpxB70aSqU-1" source="uEZ7wz5AFFrci8B15NaH-9">
          <mxGeometry width="160" relative="1" as="geometry">
            <mxPoint x="1100" y="1010.03" as="sourcePoint" />
            <mxPoint x="1180" y="1010" as="targetPoint" />
          </mxGeometry>
        </mxCell>
        <mxCell id="uEZ7wz5AFFrci8B15NaH-18" value="&lt;div style=&quot;color: rgb(51 , 51 , 51) ; background-color: rgb(245 , 245 , 245) ; font-family: &amp;#34;consolas&amp;#34; , &amp;#34;courier new&amp;#34; , monospace ; font-size: 16px ; line-height: 22px&quot;&gt;&lt;div style=&quot;font-family: &amp;#34;consolas&amp;#34; , &amp;#34;courier new&amp;#34; , monospace ; line-height: 22px&quot;&gt;&lt;div style=&quot;font-family: &amp;#34;consolas&amp;#34; , &amp;#34;courier new&amp;#34; , monospace ; line-height: 22px&quot;&gt;&lt;span style=&quot;color: #aa3731 ; font-weight: bold&quot;&gt;SugTafLeafProxy&lt;/span&gt;&lt;/div&gt;&lt;/div&gt;&lt;/div&gt;" style="rounded=1;whiteSpace=wrap;html=1;arcSize=40;fontColor=#000000;fillColor=#ffffc0;strokeColor=#ff0000;" vertex="1" parent="rmzfLeiZsfjpxB70aSqU-1">
          <mxGeometry x="1305" y="190" width="149" height="40" as="geometry" />
        </mxCell>
        <mxCell id="uEZ7wz5AFFrci8B15NaH-19" value="" style="edgeStyle=orthogonalEdgeStyle;html=1;verticalAlign=bottom;endArrow=open;endSize=8;strokeColor=#ff0000;startArrow=none;" edge="1" parent="rmzfLeiZsfjpxB70aSqU-1" source="uEZ7wz5AFFrci8B15NaH-20">
          <mxGeometry relative="1" as="geometry">
            <mxPoint x="1380" y="1320" as="targetPoint" />
          </mxGeometry>
        </mxCell>
        <mxCell id="uEZ7wz5AFFrci8B15NaH-21" value="" style="endArrow=open;endFill=1;endSize=12;html=1;" edge="1" parent="rmzfLeiZsfjpxB70aSqU-1">
          <mxGeometry width="160" relative="1" as="geometry">
            <mxPoint x="1095" y="1110" as="sourcePoint" />
            <mxPoint x="1370" y="1110" as="targetPoint" />
          </mxGeometry>
        </mxCell>
        <mxCell id="uEZ7wz5AFFrci8B15NaH-20" value="&lt;div style=&quot;color: rgb(51 , 51 , 51) ; background-color: rgb(245 , 245 , 245) ; font-family: &amp;#34;consolas&amp;#34; , &amp;#34;courier new&amp;#34; , monospace ; line-height: 22px&quot;&gt;&lt;div style=&quot;font-family: &amp;#34;consolas&amp;#34; , &amp;#34;courier new&amp;#34; , monospace ; line-height: 22px&quot;&gt;&lt;div style=&quot;font-family: &amp;#34;consolas&amp;#34; , &amp;#34;courier new&amp;#34; , monospace ; line-height: 22px&quot;&gt;&lt;span style=&quot;color: rgb(170 , 55 , 49) ; font-weight: bold&quot;&gt;&lt;font style=&quot;font-size: 18px&quot;&gt;recall&lt;/font&gt;&lt;/span&gt;&lt;/div&gt;&lt;/div&gt;&lt;/div&gt;" style="html=1;points=[];perimeter=orthogonalPerimeter;" vertex="1" parent="rmzfLeiZsfjpxB70aSqU-1">
          <mxGeometry x="1374.5" y="1020" width="10" height="110" as="geometry" />
        </mxCell>
        <mxCell id="uEZ7wz5AFFrci8B15NaH-25" value="" style="edgeStyle=orthogonalEdgeStyle;html=1;verticalAlign=bottom;endArrow=none;endSize=8;strokeColor=#ff0000;" edge="1" parent="rmzfLeiZsfjpxB70aSqU-1" source="uEZ7wz5AFFrci8B15NaH-18" target="uEZ7wz5AFFrci8B15NaH-20">
          <mxGeometry relative="1" as="geometry">
            <mxPoint x="1380" y="1220" as="targetPoint" />
            <mxPoint x="1379.5" y="150" as="sourcePoint" />
          </mxGeometry>
        </mxCell>
        <mxCell id="uEZ7wz5AFFrci8B15NaH-27" value="&lt;div style=&quot;color: rgb(51 , 51 , 51) ; background-color: rgb(245 , 245 , 245) ; font-family: &amp;#34;consolas&amp;#34; , &amp;#34;courier new&amp;#34; , monospace ; font-size: 16px ; line-height: 22px&quot;&gt;&lt;div style=&quot;font-family: &amp;#34;consolas&amp;#34; , &amp;#34;courier new&amp;#34; , monospace ; line-height: 22px&quot;&gt;&lt;div style=&quot;font-family: &amp;#34;consolas&amp;#34; , &amp;#34;courier new&amp;#34; , monospace ; line-height: 22px&quot;&gt;&lt;div style=&quot;font-family: &amp;#34;consolas&amp;#34; , &amp;#34;courier new&amp;#34; , monospace ; line-height: 22px&quot;&gt;&lt;span style=&quot;color: #aa3731 ; font-weight: bold&quot;&gt;SugTafV2LeafProxy&lt;/span&gt;&lt;/div&gt;&lt;/div&gt;&lt;/div&gt;&lt;/div&gt;" style="rounded=1;whiteSpace=wrap;html=1;arcSize=40;fontColor=#000000;fillColor=#ffffc0;strokeColor=#ff0000;" vertex="1" parent="rmzfLeiZsfjpxB70aSqU-1">
          <mxGeometry x="1500" y="190" width="149" height="40" as="geometry" />
        </mxCell>
        <mxCell id="uEZ7wz5AFFrci8B15NaH-28" value="" style="edgeStyle=orthogonalEdgeStyle;html=1;verticalAlign=bottom;endArrow=open;endSize=8;strokeColor=#ff0000;startArrow=none;" edge="1" parent="rmzfLeiZsfjpxB70aSqU-1">
          <mxGeometry relative="1" as="geometry">
            <mxPoint x="1574.5" y="1329" as="targetPoint" />
            <mxPoint x="1574" y="1169" as="sourcePoint" />
            <Array as="points">
              <mxPoint x="1574.5" y="1220" />
              <mxPoint x="1574.5" y="1220" />
            </Array>
          </mxGeometry>
        </mxCell>
        <mxCell id="uEZ7wz5AFFrci8B15NaH-29" value="&lt;div style=&quot;color: rgb(51 , 51 , 51) ; background-color: rgb(245 , 245 , 245) ; font-family: &amp;#34;consolas&amp;#34; , &amp;#34;courier new&amp;#34; , monospace ; line-height: 22px&quot;&gt;&lt;div style=&quot;font-family: &amp;#34;consolas&amp;#34; , &amp;#34;courier new&amp;#34; , monospace ; line-height: 22px&quot;&gt;&lt;div style=&quot;font-family: &amp;#34;consolas&amp;#34; , &amp;#34;courier new&amp;#34; , monospace ; line-height: 22px&quot;&gt;&lt;span style=&quot;color: rgb(170 , 55 , 49) ; font-weight: bold&quot;&gt;&lt;font style=&quot;font-size: 18px&quot;&gt;recall&lt;/font&gt;&lt;/span&gt;&lt;/div&gt;&lt;/div&gt;&lt;/div&gt;" style="html=1;points=[];perimeter=orthogonalPerimeter;" vertex="1" parent="rmzfLeiZsfjpxB70aSqU-1">
          <mxGeometry x="1569.5" y="1080" width="10" height="110" as="geometry" />
        </mxCell>
        <mxCell id="uEZ7wz5AFFrci8B15NaH-30" value="" style="edgeStyle=orthogonalEdgeStyle;html=1;verticalAlign=bottom;endArrow=none;endSize=8;strokeColor=#ff0000;" edge="1" parent="rmzfLeiZsfjpxB70aSqU-1" source="uEZ7wz5AFFrci8B15NaH-27" target="uEZ7wz5AFFrci8B15NaH-29">
          <mxGeometry relative="1" as="geometry">
            <mxPoint x="1575" y="1220" as="targetPoint" />
            <mxPoint x="1574.5" y="150" as="sourcePoint" />
          </mxGeometry>
        </mxCell>
        <mxCell id="uEZ7wz5AFFrci8B15NaH-31" value="" style="endArrow=open;endFill=1;endSize=12;html=1;" edge="1" parent="rmzfLeiZsfjpxB70aSqU-1">
          <mxGeometry width="160" relative="1" as="geometry">
            <mxPoint x="1103" y="1174.5" as="sourcePoint" />
            <mxPoint x="1560" y="1175" as="targetPoint" />
          </mxGeometry>
        </mxCell>
        <mxCell id="uEZ7wz5AFFrci8B15NaH-32" value="&lt;div style=&quot;color: rgb(51 , 51 , 51) ; background-color: rgb(245 , 245 , 245) ; font-family: &amp;#34;consolas&amp;#34; , &amp;#34;courier new&amp;#34; , monospace ; line-height: 22px&quot;&gt;&lt;div style=&quot;font-family: &amp;#34;consolas&amp;#34; , &amp;#34;courier new&amp;#34; , monospace ; line-height: 22px&quot;&gt;&lt;div style=&quot;font-family: &amp;#34;consolas&amp;#34; , &amp;#34;courier new&amp;#34; , monospace ; line-height: 22px&quot;&gt;&lt;div style=&quot;font-family: &amp;#34;consolas&amp;#34; , &amp;#34;courier new&amp;#34; , monospace ; line-height: 22px&quot;&gt;&lt;span style=&quot;color: rgb(170 , 55 , 49) ; font-weight: bold&quot;&gt;&lt;font style=&quot;font-size: 18px&quot;&gt;DoResponse&lt;/font&gt;&lt;/span&gt;&lt;/div&gt;&lt;/div&gt;&lt;/div&gt;&lt;/div&gt;" style="html=1;points=[];perimeter=orthogonalPerimeter;" vertex="1" parent="rmzfLeiZsfjpxB70aSqU-1">
          <mxGeometry x="135" y="1179" width="10" height="110" as="geometry" />
        </mxCell>
        <mxCell id="uEZ7wz5AFFrci8B15NaH-33" value="" style="edgeStyle=orthogonalEdgeStyle;html=1;verticalAlign=bottom;endArrow=none;endSize=8;strokeColor=#ff0000;startArrow=none;" edge="1" parent="rmzfLeiZsfjpxB70aSqU-1" source="qfHAP6IjWo1X9ooxiprN-5" target="uEZ7wz5AFFrci8B15NaH-32">
          <mxGeometry relative="1" as="geometry">
            <mxPoint x="140" y="1350" as="targetPoint" />
            <mxPoint x="140" y="650" as="sourcePoint" />
          </mxGeometry>
        </mxCell>
      </root>
    </mxGraphModel>
  </diagram>
  <diagram name="Copy of Page-2" id="NmYURkUQVZmqv4U6yFxa">
    <mxGraphModel dx="2333" dy="1188" grid="1" gridSize="10" guides="1" tooltips="1" connect="1" arrows="1" fold="1" page="1" pageScale="1" pageWidth="827" pageHeight="1169" math="0" shadow="0">
      <root>
        <mxCell id="_kjNfoeOi0RYeGWQc-oG-0" />
        <mxCell id="_kjNfoeOi0RYeGWQc-oG-1" parent="_kjNfoeOi0RYeGWQc-oG-0" />
        <mxCell id="_kjNfoeOi0RYeGWQc-oG-2" value="&lt;div style=&quot;color: rgb(51 , 51 , 51) ; background-color: rgb(245 , 245 , 245) ; font-family: &amp;#34;consolas&amp;#34; , &amp;#34;courier new&amp;#34; , monospace ; font-size: 16px ; line-height: 22px&quot;&gt;&lt;span style=&quot;color: #7a3e9d ; font-weight: bold&quot;&gt;RecallImp&lt;/span&gt;&lt;/div&gt;" style="rounded=1;whiteSpace=wrap;html=1;arcSize=40;fontColor=#000000;fillColor=#ffffc0;strokeColor=#ff0000;" vertex="1" parent="_kjNfoeOi0RYeGWQc-oG-1">
          <mxGeometry x="80" y="390" width="120" height="40" as="geometry" />
        </mxCell>
        <mxCell id="_kjNfoeOi0RYeGWQc-oG-3" value="" style="edgeStyle=orthogonalEdgeStyle;html=1;verticalAlign=bottom;endArrow=open;endSize=8;strokeColor=#ff0000;startArrow=none;" edge="1" parent="_kjNfoeOi0RYeGWQc-oG-1" source="_kjNfoeOi0RYeGWQc-oG-48">
          <mxGeometry relative="1" as="geometry">
            <mxPoint x="140" y="1320" as="targetPoint" />
          </mxGeometry>
        </mxCell>
        <mxCell id="_kjNfoeOi0RYeGWQc-oG-4" value="" style="edgeStyle=orthogonalEdgeStyle;html=1;verticalAlign=bottom;endArrow=none;endSize=8;strokeColor=#ff0000;" edge="1" parent="_kjNfoeOi0RYeGWQc-oG-1" source="_kjNfoeOi0RYeGWQc-oG-2">
          <mxGeometry relative="1" as="geometry">
            <mxPoint x="140" y="450" as="targetPoint" />
            <mxPoint x="140" y="400" as="sourcePoint" />
          </mxGeometry>
        </mxCell>
        <mxCell id="_kjNfoeOi0RYeGWQc-oG-5" value="&lt;div style=&quot;color: rgb(51 , 51 , 51) ; background-color: rgb(245 , 245 , 245) ; font-family: &amp;#34;consolas&amp;#34; , &amp;#34;courier new&amp;#34; , monospace ; font-size: 16px ; line-height: 22px&quot;&gt;&lt;b style=&quot;background-color: rgb(248 , 249 , 250) ; color: rgb(122 , 62 , 157)&quot;&gt;context_初始化赋值&lt;/b&gt;&lt;br&gt;&lt;/div&gt;" style="html=1;points=[];perimeter=orthogonalPerimeter;" vertex="1" parent="_kjNfoeOi0RYeGWQc-oG-1">
          <mxGeometry x="135" y="440" width="10" height="110" as="geometry" />
        </mxCell>
        <mxCell id="_kjNfoeOi0RYeGWQc-oG-7" value="" style="edgeStyle=orthogonalEdgeStyle;html=1;verticalAlign=bottom;endArrow=none;endSize=8;strokeColor=#ff0000;startArrow=none;" edge="1" parent="_kjNfoeOi0RYeGWQc-oG-1" source="_kjNfoeOi0RYeGWQc-oG-5">
          <mxGeometry relative="1" as="geometry">
            <mxPoint x="140" y="560" as="targetPoint" />
            <mxPoint x="140" y="500" as="sourcePoint" />
          </mxGeometry>
        </mxCell>
        <mxCell id="_kjNfoeOi0RYeGWQc-oG-8" value="&lt;font style=&quot;font-size: 24px&quot;&gt;yes&lt;/font&gt;" style="edgeStyle=orthogonalEdgeStyle;html=1;align=left;verticalAlign=bottom;endArrow=open;endSize=8;strokeColor=#ff0000;" edge="1" parent="_kjNfoeOi0RYeGWQc-oG-1" source="_kjNfoeOi0RYeGWQc-oG-10">
          <mxGeometry x="-0.75" y="5" relative="1" as="geometry">
            <mxPoint x="420" y="618" as="targetPoint" />
            <mxPoint as="offset" />
          </mxGeometry>
        </mxCell>
        <mxCell id="_kjNfoeOi0RYeGWQc-oG-9" value="&lt;font style=&quot;font-size: 24px&quot;&gt;no&lt;/font&gt;" style="edgeStyle=orthogonalEdgeStyle;html=1;align=left;verticalAlign=top;endArrow=open;endSize=8;strokeColor=#ff0000;" edge="1" parent="_kjNfoeOi0RYeGWQc-oG-1" source="_kjNfoeOi0RYeGWQc-oG-10">
          <mxGeometry x="-0.0957" y="40" relative="1" as="geometry">
            <mxPoint x="900" y="1010" as="targetPoint" />
            <Array as="points">
              <mxPoint x="140" y="1010" />
            </Array>
            <mxPoint as="offset" />
          </mxGeometry>
        </mxCell>
        <mxCell id="_kjNfoeOi0RYeGWQc-oG-10" value="&lt;font style=&quot;font-size: 18px&quot;&gt;cache_able&lt;/font&gt;" style="rhombus;whiteSpace=wrap;html=1;fillColor=#ffffc0;strokeColor=#ff0000;" vertex="1" parent="_kjNfoeOi0RYeGWQc-oG-1">
          <mxGeometry x="85" y="585" width="110" height="65" as="geometry" />
        </mxCell>
        <mxCell id="_kjNfoeOi0RYeGWQc-oG-11" value="" style="edgeStyle=orthogonalEdgeStyle;html=1;verticalAlign=bottom;endArrow=none;endSize=8;strokeColor=#ff0000;startArrow=none;" edge="1" parent="_kjNfoeOi0RYeGWQc-oG-1" target="_kjNfoeOi0RYeGWQc-oG-10">
          <mxGeometry relative="1" as="geometry">
            <mxPoint x="140" y="1150" as="targetPoint" />
            <mxPoint x="140" y="560" as="sourcePoint" />
          </mxGeometry>
        </mxCell>
        <mxCell id="_kjNfoeOi0RYeGWQc-oG-12" value="&lt;div style=&quot;color: rgb(51 , 51 , 51) ; background-color: rgb(245 , 245 , 245) ; font-family: &amp;#34;consolas&amp;#34; , &amp;#34;courier new&amp;#34; , monospace ; font-size: 16px ; line-height: 22px&quot;&gt;&lt;span style=&quot;color: #7a3e9d ; font-weight: bold&quot;&gt;SugCacheMgr&lt;/span&gt;&lt;/div&gt;" style="rounded=1;whiteSpace=wrap;html=1;arcSize=40;fontColor=#000000;fillColor=#ffffc0;strokeColor=#ff0000;" vertex="1" parent="_kjNfoeOi0RYeGWQc-oG-1">
          <mxGeometry x="380" y="390" width="120" height="40" as="geometry" />
        </mxCell>
        <mxCell id="_kjNfoeOi0RYeGWQc-oG-13" value="" style="edgeStyle=orthogonalEdgeStyle;html=1;verticalAlign=bottom;endArrow=open;endSize=8;strokeColor=#ff0000;startArrow=none;" edge="1" parent="_kjNfoeOi0RYeGWQc-oG-1" source="_kjNfoeOi0RYeGWQc-oG-16">
          <mxGeometry relative="1" as="geometry">
            <mxPoint x="440" y="1320" as="targetPoint" />
          </mxGeometry>
        </mxCell>
        <mxCell id="_kjNfoeOi0RYeGWQc-oG-14" value="&lt;div style=&quot;color: rgb(51 , 51 , 51) ; background-color: rgb(245 , 245 , 245) ; font-family: &amp;#34;consolas&amp;#34; , &amp;#34;courier new&amp;#34; , monospace ; font-size: 16px ; line-height: 22px&quot;&gt;&lt;div style=&quot;font-family: &amp;#34;consolas&amp;#34; , &amp;#34;courier new&amp;#34; , monospace ; line-height: 22px&quot;&gt;TCommCacheSug&lt;/div&gt;&lt;/div&gt;" style="rounded=1;whiteSpace=wrap;html=1;arcSize=40;fontColor=#000000;fillColor=#ffffc0;strokeColor=#ff0000;" vertex="1" parent="_kjNfoeOi0RYeGWQc-oG-1">
          <mxGeometry x="600" y="390" width="120" height="40" as="geometry" />
        </mxCell>
        <mxCell id="_kjNfoeOi0RYeGWQc-oG-15" value="" style="edgeStyle=orthogonalEdgeStyle;html=1;verticalAlign=bottom;endArrow=open;endSize=8;strokeColor=#ff0000;startArrow=none;" edge="1" parent="_kjNfoeOi0RYeGWQc-oG-1" source="_kjNfoeOi0RYeGWQc-oG-22">
          <mxGeometry relative="1" as="geometry">
            <mxPoint x="660" y="1320" as="targetPoint" />
          </mxGeometry>
        </mxCell>
        <mxCell id="_kjNfoeOi0RYeGWQc-oG-16" value="&lt;div style=&quot;color: rgb(51 , 51 , 51) ; background-color: rgb(245 , 245 , 245) ; font-family: &amp;#34;consolas&amp;#34; , &amp;#34;courier new&amp;#34; , monospace ; font-size: 16px ; line-height: 22px&quot;&gt;&lt;div style=&quot;font-family: &amp;#34;consolas&amp;#34; , &amp;#34;courier new&amp;#34; , monospace ; line-height: 22px&quot;&gt;&lt;span style=&quot;color: #aa3731 ; font-weight: bold&quot;&gt;DoGetSugCache&lt;/span&gt;&lt;/div&gt;&lt;/div&gt;" style="html=1;points=[];perimeter=orthogonalPerimeter;" vertex="1" parent="_kjNfoeOi0RYeGWQc-oG-1">
          <mxGeometry x="435" y="585" width="10" height="405" as="geometry" />
        </mxCell>
        <mxCell id="_kjNfoeOi0RYeGWQc-oG-17" value="" style="edgeStyle=orthogonalEdgeStyle;html=1;verticalAlign=bottom;endArrow=none;endSize=8;strokeColor=#ff0000;" edge="1" parent="_kjNfoeOi0RYeGWQc-oG-1" source="_kjNfoeOi0RYeGWQc-oG-12" target="_kjNfoeOi0RYeGWQc-oG-16">
          <mxGeometry relative="1" as="geometry">
            <mxPoint x="440" y="1150" as="targetPoint" />
            <mxPoint x="440" y="150" as="sourcePoint" />
          </mxGeometry>
        </mxCell>
        <mxCell id="_kjNfoeOi0RYeGWQc-oG-18" value="&lt;div style=&quot;color: rgb(51 , 51 , 51) ; background-color: rgb(245 , 245 , 245) ; font-family: &amp;#34;consolas&amp;#34; , &amp;#34;courier new&amp;#34; , monospace ; line-height: 22px&quot;&gt;&lt;div style=&quot;font-family: &amp;#34;consolas&amp;#34; , &amp;#34;courier new&amp;#34; , monospace ; line-height: 22px&quot;&gt;&lt;div style=&quot;font-family: &amp;#34;consolas&amp;#34; , &amp;#34;courier new&amp;#34; , monospace ; line-height: 22px&quot;&gt;&lt;span style=&quot;color: rgb(170 , 55 , 49) ; font-weight: bold&quot;&gt;&lt;font style=&quot;font-size: 18px&quot;&gt;promise_get&lt;/font&gt;&lt;/span&gt;&lt;/div&gt;&lt;/div&gt;&lt;/div&gt;" style="html=1;points=[];perimeter=orthogonalPerimeter;" vertex="1" parent="_kjNfoeOi0RYeGWQc-oG-1">
          <mxGeometry x="655" y="585" width="10" height="110" as="geometry" />
        </mxCell>
        <mxCell id="_kjNfoeOi0RYeGWQc-oG-19" value="" style="edgeStyle=orthogonalEdgeStyle;html=1;verticalAlign=bottom;endArrow=none;endSize=8;strokeColor=#ff0000;" edge="1" parent="_kjNfoeOi0RYeGWQc-oG-1" source="_kjNfoeOi0RYeGWQc-oG-14" target="_kjNfoeOi0RYeGWQc-oG-18">
          <mxGeometry relative="1" as="geometry">
            <mxPoint x="660" y="1160" as="targetPoint" />
            <mxPoint x="660" y="150" as="sourcePoint" />
          </mxGeometry>
        </mxCell>
        <mxCell id="_kjNfoeOi0RYeGWQc-oG-20" value="&lt;div style=&quot;background-color: rgb(245 , 245 , 245) ; font-family: &amp;#34;consolas&amp;#34; , &amp;#34;courier new&amp;#34; , monospace ; line-height: 22px&quot;&gt;&lt;div style=&quot;font-family: &amp;#34;consolas&amp;#34; , &amp;#34;courier new&amp;#34; , monospace ; line-height: 22px&quot;&gt;&lt;div style=&quot;font-family: &amp;#34;consolas&amp;#34; , &amp;#34;courier new&amp;#34; , monospace ; line-height: 22px&quot;&gt;&lt;font color=&quot;#aa3731&quot;&gt;&lt;span style=&quot;font-size: 18px&quot;&gt;&lt;b&gt;共享内存获取内存, 校验数据有效性&lt;/b&gt;&lt;/span&gt;&lt;/font&gt;&lt;/div&gt;&lt;div style=&quot;font-family: &amp;#34;consolas&amp;#34; , &amp;#34;courier new&amp;#34; , monospace ; line-height: 22px&quot;&gt;&lt;font color=&quot;#aa3731&quot;&gt;&lt;span style=&quot;font-size: 18px&quot;&gt;&lt;b&gt;同时也会更新缓存&lt;/b&gt;&lt;/span&gt;&lt;/font&gt;&lt;/div&gt;&lt;/div&gt;&lt;/div&gt;" style="html=1;points=[];perimeter=orthogonalPerimeter;" vertex="1" parent="_kjNfoeOi0RYeGWQc-oG-1">
          <mxGeometry x="655" y="710" width="10" height="110" as="geometry" />
        </mxCell>
        <mxCell id="_kjNfoeOi0RYeGWQc-oG-21" value="" style="edgeStyle=orthogonalEdgeStyle;html=1;verticalAlign=bottom;endArrow=none;endSize=8;strokeColor=#ff0000;startArrow=none;" edge="1" parent="_kjNfoeOi0RYeGWQc-oG-1" source="_kjNfoeOi0RYeGWQc-oG-18" target="_kjNfoeOi0RYeGWQc-oG-20">
          <mxGeometry relative="1" as="geometry">
            <mxPoint x="660" y="1160" as="targetPoint" />
            <mxPoint x="660" y="695" as="sourcePoint" />
          </mxGeometry>
        </mxCell>
        <mxCell id="_kjNfoeOi0RYeGWQc-oG-22" value="&lt;div style=&quot;color: rgb(51 , 51 , 51) ; background-color: rgb(245 , 245 , 245) ; font-family: &amp;#34;consolas&amp;#34; , &amp;#34;courier new&amp;#34; , monospace ; line-height: 22px&quot;&gt;&lt;div style=&quot;font-family: &amp;#34;consolas&amp;#34; , &amp;#34;courier new&amp;#34; , monospace ; line-height: 22px&quot;&gt;&lt;div style=&quot;font-family: &amp;#34;consolas&amp;#34; , &amp;#34;courier new&amp;#34; , monospace ; line-height: 22px&quot;&gt;&lt;div style=&quot;font-family: &amp;#34;consolas&amp;#34; , &amp;#34;courier new&amp;#34; , monospace ; font-size: 16px ; line-height: 22px&quot;&gt;&lt;span style=&quot;color: #aa3731 ; font-weight: bold&quot;&gt;HandleCacheData&lt;/span&gt;&lt;/div&gt;&lt;div style=&quot;font-family: &amp;#34;consolas&amp;#34; , &amp;#34;courier new&amp;#34; , monospace ; font-size: 16px ; line-height: 22px&quot;&gt;&lt;span style=&quot;color: #aa3731 ; font-weight: bold&quot;&gt;cache命中率监控&lt;/span&gt;&lt;/div&gt;&lt;div style=&quot;font-family: &amp;#34;consolas&amp;#34; , &amp;#34;courier new&amp;#34; , monospace ; font-size: 16px ; line-height: 22px&quot;&gt;&lt;span style=&quot;color: #aa3731 ; font-weight: bold&quot;&gt;构造回包&lt;/span&gt;&lt;/div&gt;&lt;/div&gt;&lt;/div&gt;&lt;/div&gt;" style="html=1;points=[];perimeter=orthogonalPerimeter;" vertex="1" parent="_kjNfoeOi0RYeGWQc-oG-1">
          <mxGeometry x="655" y="850" width="10" height="110" as="geometry" />
        </mxCell>
        <mxCell id="_kjNfoeOi0RYeGWQc-oG-23" value="" style="edgeStyle=orthogonalEdgeStyle;html=1;verticalAlign=bottom;endArrow=none;endSize=8;strokeColor=#ff0000;startArrow=none;" edge="1" parent="_kjNfoeOi0RYeGWQc-oG-1" source="_kjNfoeOi0RYeGWQc-oG-20" target="_kjNfoeOi0RYeGWQc-oG-22">
          <mxGeometry relative="1" as="geometry">
            <mxPoint x="660" y="1160" as="targetPoint" />
            <mxPoint x="660" y="920" as="sourcePoint" />
          </mxGeometry>
        </mxCell>
        <mxCell id="_kjNfoeOi0RYeGWQc-oG-24" value="" style="endArrow=open;endFill=1;endSize=12;html=1;" edge="1" parent="_kjNfoeOi0RYeGWQc-oG-1">
          <mxGeometry width="160" relative="1" as="geometry">
            <mxPoint x="450" y="590.03" as="sourcePoint" />
            <mxPoint x="650" y="590" as="targetPoint" />
          </mxGeometry>
        </mxCell>
        <mxCell id="_kjNfoeOi0RYeGWQc-oG-25" value="" style="endArrow=open;endFill=1;endSize=12;html=1;" edge="1" parent="_kjNfoeOi0RYeGWQc-oG-1">
          <mxGeometry width="160" relative="1" as="geometry">
            <mxPoint x="655" y="960" as="sourcePoint" />
            <mxPoint x="450" y="960" as="targetPoint" />
          </mxGeometry>
        </mxCell>
        <mxCell id="_kjNfoeOi0RYeGWQc-oG-26" value="&lt;div style=&quot;color: rgb(51 , 51 , 51) ; background-color: rgb(245 , 245 , 245) ; font-family: &amp;#34;consolas&amp;#34; , &amp;#34;courier new&amp;#34; , monospace ; font-size: 16px ; line-height: 22px&quot;&gt;&lt;div style=&quot;font-family: &amp;#34;consolas&amp;#34; , &amp;#34;courier new&amp;#34; , monospace ; line-height: 22px&quot;&gt;&lt;span style=&quot;color: #7a3e9d ; font-weight: bold&quot;&gt;SugRecall&lt;/span&gt;&lt;/div&gt;&lt;/div&gt;" style="rounded=1;whiteSpace=wrap;html=1;arcSize=40;fontColor=#000000;fillColor=#ffffc0;strokeColor=#ff0000;" vertex="1" parent="_kjNfoeOi0RYeGWQc-oG-1">
          <mxGeometry x="850" y="390" width="120" height="40" as="geometry" />
        </mxCell>
        <mxCell id="_kjNfoeOi0RYeGWQc-oG-27" value="" style="edgeStyle=orthogonalEdgeStyle;html=1;verticalAlign=bottom;endArrow=open;endSize=8;strokeColor=#ff0000;startArrow=none;exitX=0.6;exitY=1.01;exitDx=0;exitDy=0;exitPerimeter=0;" edge="1" parent="_kjNfoeOi0RYeGWQc-oG-1" source="_kjNfoeOi0RYeGWQc-oG-28">
          <mxGeometry relative="1" as="geometry">
            <mxPoint x="910" y="1580" as="targetPoint" />
            <mxPoint x="910" y="1169" as="sourcePoint" />
          </mxGeometry>
        </mxCell>
        <mxCell id="_kjNfoeOi0RYeGWQc-oG-28" value="&lt;div style=&quot;color: rgb(51 , 51 , 51) ; background-color: rgb(245 , 245 , 245) ; font-family: &amp;#34;consolas&amp;#34; , &amp;#34;courier new&amp;#34; , monospace ; line-height: 22px&quot;&gt;&lt;div style=&quot;font-family: &amp;#34;consolas&amp;#34; , &amp;#34;courier new&amp;#34; , monospace ; line-height: 22px&quot;&gt;&lt;div style=&quot;font-family: &amp;#34;consolas&amp;#34; , &amp;#34;courier new&amp;#34; , monospace ; line-height: 22px&quot;&gt;&lt;div style=&quot;font-family: &amp;#34;consolas&amp;#34; , &amp;#34;courier new&amp;#34; , monospace ; font-size: 16px ; line-height: 22px&quot;&gt;&lt;div style=&quot;font-family: &amp;#34;consolas&amp;#34; , &amp;#34;courier new&amp;#34; , monospace ; line-height: 22px&quot;&gt;&lt;div style=&quot;font-family: &amp;#34;consolas&amp;#34; , &amp;#34;courier new&amp;#34; , monospace ; line-height: 22px&quot;&gt;&lt;span style=&quot;color: #aa3731 ; font-weight: bold&quot;&gt;Recall&lt;/span&gt;&lt;/div&gt;&lt;/div&gt;&lt;/div&gt;&lt;/div&gt;&lt;/div&gt;&lt;/div&gt;" style="html=1;points=[];perimeter=orthogonalPerimeter;" vertex="1" parent="_kjNfoeOi0RYeGWQc-oG-1">
          <mxGeometry x="905" y="1010" width="10" height="550" as="geometry" />
        </mxCell>
        <mxCell id="_kjNfoeOi0RYeGWQc-oG-29" value="" style="edgeStyle=orthogonalEdgeStyle;html=1;verticalAlign=bottom;endArrow=none;endSize=8;strokeColor=#ff0000;" edge="1" parent="_kjNfoeOi0RYeGWQc-oG-1" source="_kjNfoeOi0RYeGWQc-oG-26" target="_kjNfoeOi0RYeGWQc-oG-28">
          <mxGeometry relative="1" as="geometry">
            <mxPoint x="910" y="1180" as="targetPoint" />
            <mxPoint x="910" y="150" as="sourcePoint" />
          </mxGeometry>
        </mxCell>
        <mxCell id="_kjNfoeOi0RYeGWQc-oG-34" value="&lt;div style=&quot;background-color: rgb(245 , 245 , 245) ; font-family: &amp;#34;consolas&amp;#34; , &amp;#34;courier new&amp;#34; , monospace ; font-size: 16px ; line-height: 22px&quot;&gt;&lt;div style=&quot;color: rgb(51 , 51 , 51) ; font-family: &amp;#34;consolas&amp;#34; , &amp;#34;courier new&amp;#34; , monospace ; line-height: 22px&quot;&gt;TrieDatabase&lt;/div&gt;&lt;/div&gt;" style="rounded=1;whiteSpace=wrap;html=1;arcSize=40;fontColor=#000000;fillColor=#ffffc0;strokeColor=#ff0000;" vertex="1" parent="_kjNfoeOi0RYeGWQc-oG-1">
          <mxGeometry x="1060" y="390" width="149" height="40" as="geometry" />
        </mxCell>
        <mxCell id="_kjNfoeOi0RYeGWQc-oG-35" value="" style="edgeStyle=orthogonalEdgeStyle;html=1;verticalAlign=bottom;endArrow=open;endSize=8;strokeColor=#ff0000;startArrow=none;" edge="1" parent="_kjNfoeOi0RYeGWQc-oG-1" source="e6WWk5yNTiERFxG9jxz4-7">
          <mxGeometry relative="1" as="geometry">
            <mxPoint x="1135" y="1580" as="targetPoint" />
          </mxGeometry>
        </mxCell>
        <mxCell id="_kjNfoeOi0RYeGWQc-oG-48" value="&lt;div style=&quot;color: rgb(51 , 51 , 51) ; background-color: rgb(245 , 245 , 245) ; font-family: &amp;#34;consolas&amp;#34; , &amp;#34;courier new&amp;#34; , monospace ; line-height: 22px&quot;&gt;&lt;div style=&quot;font-family: &amp;#34;consolas&amp;#34; , &amp;#34;courier new&amp;#34; , monospace ; line-height: 22px&quot;&gt;&lt;div style=&quot;font-family: &amp;#34;consolas&amp;#34; , &amp;#34;courier new&amp;#34; , monospace ; line-height: 22px&quot;&gt;&lt;div style=&quot;font-family: &amp;#34;consolas&amp;#34; , &amp;#34;courier new&amp;#34; , monospace ; line-height: 22px&quot;&gt;&lt;span style=&quot;color: rgb(170 , 55 , 49) ; font-weight: bold&quot;&gt;&lt;font style=&quot;font-size: 18px&quot;&gt;DoResponse&lt;/font&gt;&lt;/span&gt;&lt;/div&gt;&lt;/div&gt;&lt;/div&gt;&lt;/div&gt;" style="html=1;points=[];perimeter=orthogonalPerimeter;" vertex="1" parent="_kjNfoeOi0RYeGWQc-oG-1">
          <mxGeometry x="135" y="1160" width="10" height="110" as="geometry" />
        </mxCell>
        <mxCell id="_kjNfoeOi0RYeGWQc-oG-49" value="" style="edgeStyle=orthogonalEdgeStyle;html=1;verticalAlign=bottom;endArrow=none;endSize=8;strokeColor=#ff0000;startArrow=none;" edge="1" parent="_kjNfoeOi0RYeGWQc-oG-1" source="_kjNfoeOi0RYeGWQc-oG-10" target="_kjNfoeOi0RYeGWQc-oG-48">
          <mxGeometry relative="1" as="geometry">
            <mxPoint x="140" y="1350" as="targetPoint" />
            <mxPoint x="140" y="650" as="sourcePoint" />
          </mxGeometry>
        </mxCell>
        <mxCell id="_kjNfoeOi0RYeGWQc-oG-36" value="&lt;div style=&quot;color: rgb(51 , 51 , 51) ; background-color: rgb(245 , 245 , 245) ; font-family: &amp;#34;consolas&amp;#34; , &amp;#34;courier new&amp;#34; , monospace ; line-height: 22px&quot;&gt;&lt;div style=&quot;font-family: &amp;#34;consolas&amp;#34; , &amp;#34;courier new&amp;#34; , monospace ; line-height: 22px&quot;&gt;&lt;div style=&quot;font-family: &amp;#34;consolas&amp;#34; , &amp;#34;courier new&amp;#34; , monospace ; line-height: 22px&quot;&gt;&lt;span style=&quot;color: rgb(170 , 55 , 49) ; font-weight: bold&quot;&gt;&lt;font style=&quot;font-size: 18px&quot;&gt;recall&lt;/font&gt;&lt;/span&gt;&lt;/div&gt;&lt;/div&gt;&lt;/div&gt;" style="html=1;points=[];perimeter=orthogonalPerimeter;" vertex="1" parent="_kjNfoeOi0RYeGWQc-oG-1">
          <mxGeometry x="1129.5" y="1000" width="10" height="80" as="geometry" />
        </mxCell>
        <mxCell id="e6WWk5yNTiERFxG9jxz4-0" value="" style="edgeStyle=orthogonalEdgeStyle;html=1;verticalAlign=bottom;endArrow=none;endSize=8;strokeColor=#ff0000;" edge="1" parent="_kjNfoeOi0RYeGWQc-oG-1" source="_kjNfoeOi0RYeGWQc-oG-34" target="_kjNfoeOi0RYeGWQc-oG-36">
          <mxGeometry relative="1" as="geometry">
            <mxPoint x="1135" y="1320" as="targetPoint" />
            <mxPoint x="1134.5" y="230" as="sourcePoint" />
          </mxGeometry>
        </mxCell>
        <mxCell id="e6WWk5yNTiERFxG9jxz4-2" value="" style="endArrow=open;endFill=1;endSize=12;html=1;" edge="1" parent="_kjNfoeOi0RYeGWQc-oG-1">
          <mxGeometry width="160" relative="1" as="geometry">
            <mxPoint x="915" y="1010.03" as="sourcePoint" />
            <mxPoint x="1115" y="1010" as="targetPoint" />
          </mxGeometry>
        </mxCell>
        <mxCell id="e6WWk5yNTiERFxG9jxz4-5" value="&lt;div style=&quot;background-color: rgb(245 , 245 , 245) ; font-family: &amp;#34;consolas&amp;#34; , &amp;#34;courier new&amp;#34; , monospace ; line-height: 22px&quot;&gt;&lt;div style=&quot;font-family: &amp;#34;consolas&amp;#34; , &amp;#34;courier new&amp;#34; , monospace ; line-height: 22px&quot;&gt;&lt;div style=&quot;font-family: &amp;#34;consolas&amp;#34; , &amp;#34;courier new&amp;#34; , monospace ; line-height: 22px&quot;&gt;&lt;div style=&quot;color: rgb(51 , 51 , 51) ; font-family: &amp;#34;consolas&amp;#34; , &amp;#34;courier new&amp;#34; , monospace ; font-size: 16px ; line-height: 22px&quot;&gt;&lt;span style=&quot;color: #aa3731 ; font-weight: bold&quot;&gt;GetPrefixMatchValueList&lt;/span&gt;&lt;/div&gt;&lt;div style=&quot;font-family: &amp;#34;consolas&amp;#34; , &amp;#34;courier new&amp;#34; , monospace ; font-size: 16px ; line-height: 22px&quot;&gt;&lt;font color=&quot;#aa3731&quot;&gt;&lt;b&gt;拉取正排&lt;/b&gt;&lt;/font&gt;&lt;/div&gt;&lt;/div&gt;&lt;/div&gt;&lt;/div&gt;" style="html=1;points=[];perimeter=orthogonalPerimeter;" vertex="1" parent="_kjNfoeOi0RYeGWQc-oG-1">
          <mxGeometry x="1129.5" y="1320" width="10" height="110" as="geometry" />
        </mxCell>
        <mxCell id="e6WWk5yNTiERFxG9jxz4-6" value="" style="edgeStyle=orthogonalEdgeStyle;html=1;verticalAlign=bottom;endArrow=none;endSize=8;strokeColor=#ff0000;startArrow=none;" edge="1" parent="_kjNfoeOi0RYeGWQc-oG-1" source="e6WWk5yNTiERFxG9jxz4-11" target="e6WWk5yNTiERFxG9jxz4-5">
          <mxGeometry relative="1" as="geometry">
            <mxPoint x="1135" y="1640" as="targetPoint" />
            <mxPoint x="1134.5" y="1110" as="sourcePoint" />
          </mxGeometry>
        </mxCell>
        <mxCell id="e6WWk5yNTiERFxG9jxz4-7" value="&lt;div style=&quot;color: rgb(51 , 51 , 51) ; background-color: rgb(245 , 245 , 245) ; font-family: &amp;#34;consolas&amp;#34; , &amp;#34;courier new&amp;#34; , monospace ; line-height: 22px&quot;&gt;&lt;div style=&quot;font-family: &amp;#34;consolas&amp;#34; , &amp;#34;courier new&amp;#34; , monospace ; line-height: 22px&quot;&gt;&lt;div style=&quot;font-family: &amp;#34;consolas&amp;#34; , &amp;#34;courier new&amp;#34; , monospace ; line-height: 22px&quot;&gt;&lt;div style=&quot;font-family: &amp;#34;consolas&amp;#34; , &amp;#34;courier new&amp;#34; , monospace ; font-size: 16px ; line-height: 22px&quot;&gt;&lt;span style=&quot;color: #aa3731 ; font-weight: bold&quot;&gt;GetTopNDocs&lt;/span&gt;&lt;/div&gt;&lt;div style=&quot;font-family: &amp;#34;consolas&amp;#34; , &amp;#34;courier new&amp;#34; , monospace ; font-size: 16px ; line-height: 22px&quot;&gt;&lt;span style=&quot;color: #aa3731 ; font-weight: bold&quot;&gt;TopK筛选&lt;/span&gt;&lt;/div&gt;&lt;/div&gt;&lt;/div&gt;&lt;/div&gt;" style="html=1;points=[];perimeter=orthogonalPerimeter;" vertex="1" parent="_kjNfoeOi0RYeGWQc-oG-1">
          <mxGeometry x="1129.5" y="1440" width="10" height="110" as="geometry" />
        </mxCell>
        <mxCell id="e6WWk5yNTiERFxG9jxz4-8" value="" style="edgeStyle=orthogonalEdgeStyle;html=1;verticalAlign=bottom;endArrow=none;endSize=8;strokeColor=#ff0000;startArrow=none;" edge="1" parent="_kjNfoeOi0RYeGWQc-oG-1" source="e6WWk5yNTiERFxG9jxz4-5" target="e6WWk5yNTiERFxG9jxz4-7">
          <mxGeometry relative="1" as="geometry">
            <mxPoint x="1135" y="1640" as="targetPoint" />
            <mxPoint x="1134.5" y="1480" as="sourcePoint" />
          </mxGeometry>
        </mxCell>
        <mxCell id="e6WWk5yNTiERFxG9jxz4-10" value="" style="endArrow=open;endFill=1;endSize=12;html=1;" edge="1" parent="_kjNfoeOi0RYeGWQc-oG-1">
          <mxGeometry width="160" relative="1" as="geometry">
            <mxPoint x="1139.5" y="1550" as="sourcePoint" />
            <mxPoint x="934.5" y="1550" as="targetPoint" />
          </mxGeometry>
        </mxCell>
        <mxCell id="e6WWk5yNTiERFxG9jxz4-11" value="&lt;div style=&quot;color: rgb(51 , 51 , 51) ; background-color: rgb(245 , 245 , 245) ; font-family: &amp;#34;consolas&amp;#34; , &amp;#34;courier new&amp;#34; , monospace ; line-height: 22px&quot;&gt;&lt;div style=&quot;font-family: &amp;#34;consolas&amp;#34; , &amp;#34;courier new&amp;#34; , monospace ; line-height: 22px&quot;&gt;&lt;div style=&quot;font-family: &amp;#34;consolas&amp;#34; , &amp;#34;courier new&amp;#34; , monospace ; line-height: 22px&quot;&gt;&lt;div style=&quot;line-height: 22px&quot;&gt;&lt;font style=&quot;font-size: 18px&quot;&gt;前缀trie:trie_adapter_&lt;/font&gt;&lt;/div&gt;&lt;div style=&quot;line-height: 22px&quot;&gt;&lt;font size=&quot;3&quot;&gt;简拼前缀trie：todo&lt;/font&gt;&lt;/div&gt;&lt;div style=&quot;line-height: 22px&quot;&gt;&lt;font size=&quot;3&quot;&gt;拼音前缀索引: pho_prefix_index_&lt;/font&gt;&lt;/div&gt;&lt;div style=&quot;line-height: 22px&quot;&gt;&lt;font size=&quot;3&quot;&gt;非前缀索引：noprefix_index_&lt;/font&gt;&lt;/div&gt;&lt;div style=&quot;line-height: 22px&quot;&gt;&lt;font size=&quot;3&quot;&gt;拼音非前缀索引：pho_noprefix_index_&amp;nbsp;&lt;/font&gt;&lt;/div&gt;&lt;/div&gt;&lt;/div&gt;&lt;/div&gt;" style="html=1;points=[];perimeter=orthogonalPerimeter;" vertex="1" parent="_kjNfoeOi0RYeGWQc-oG-1">
          <mxGeometry x="1129.5" y="1090" width="10" height="210" as="geometry" />
        </mxCell>
        <mxCell id="e6WWk5yNTiERFxG9jxz4-12" value="" style="edgeStyle=orthogonalEdgeStyle;html=1;verticalAlign=bottom;endArrow=none;endSize=8;strokeColor=#ff0000;startArrow=none;" edge="1" parent="_kjNfoeOi0RYeGWQc-oG-1" source="_kjNfoeOi0RYeGWQc-oG-36" target="e6WWk5yNTiERFxG9jxz4-11">
          <mxGeometry relative="1" as="geometry">
            <mxPoint x="1134.5" y="1370" as="targetPoint" />
            <mxPoint x="1134.5" y="1110" as="sourcePoint" />
          </mxGeometry>
        </mxCell>
      </root>
    </mxGraphModel>
  </diagram>
  <diagram id="gKBUTg94v5w012xAxWo9" name="Page-3">
    <mxGraphModel dx="2333" dy="1188" grid="1" gridSize="10" guides="1" tooltips="1" connect="1" arrows="1" fold="1" page="1" pageScale="1" pageWidth="827" pageHeight="1169" math="0" shadow="0">
      <root>
        <mxCell id="FcgcPlc2oOZEN358Y2tJ-0" />
        <mxCell id="FcgcPlc2oOZEN358Y2tJ-1" parent="FcgcPlc2oOZEN358Y2tJ-0" />
        <mxCell id="FcgcPlc2oOZEN358Y2tJ-2" value="&lt;div style=&quot;color: rgb(51 , 51 , 51) ; background-color: rgb(245 , 245 , 245) ; font-family: &amp;#34;consolas&amp;#34; , &amp;#34;courier new&amp;#34; , monospace ; font-size: 16px ; line-height: 22px&quot;&gt;&lt;div style=&quot;font-family: &amp;#34;consolas&amp;#34; , &amp;#34;courier new&amp;#34; , monospace ; line-height: 22px&quot;&gt;&lt;span style=&quot;color: #aa3731 ; font-weight: bold&quot;&gt;GMetaDataMgr&lt;/span&gt;&lt;/div&gt;&lt;/div&gt;" style="rounded=1;whiteSpace=wrap;html=1;arcSize=40;fontColor=#000000;fillColor=#ffffc0;strokeColor=#ff0000;" vertex="1" parent="FcgcPlc2oOZEN358Y2tJ-1">
          <mxGeometry x="100" y="80" width="120" height="40" as="geometry" />
        </mxCell>
        <mxCell id="FcgcPlc2oOZEN358Y2tJ-3" value="" style="edgeStyle=orthogonalEdgeStyle;html=1;verticalAlign=bottom;endArrow=open;endSize=8;strokeColor=#ff0000;startArrow=none;" edge="1" source="TaTsrI8ihkAiQImEdTjc-6" parent="FcgcPlc2oOZEN358Y2tJ-1">
          <mxGeometry relative="1" as="geometry">
            <mxPoint x="160" y="1150" as="targetPoint" />
          </mxGeometry>
        </mxCell>
        <mxCell id="FcgcPlc2oOZEN358Y2tJ-4" value="&lt;div style=&quot;background-color: rgb(245 , 245 , 245) ; font-family: &amp;#34;consolas&amp;#34; , &amp;#34;courier new&amp;#34; , monospace ; font-size: 16px ; line-height: 22px&quot;&gt;&lt;font color=&quot;#7a3e9d&quot;&gt;Init&lt;/font&gt;&lt;/div&gt;" style="html=1;points=[];perimeter=orthogonalPerimeter;" vertex="1" parent="FcgcPlc2oOZEN358Y2tJ-1">
          <mxGeometry x="155" y="150" width="10" height="80" as="geometry" />
        </mxCell>
        <mxCell id="FcgcPlc2oOZEN358Y2tJ-5" value="" style="edgeStyle=orthogonalEdgeStyle;html=1;verticalAlign=bottom;endArrow=none;endSize=8;strokeColor=#ff0000;" edge="1" parent="FcgcPlc2oOZEN358Y2tJ-1" source="FcgcPlc2oOZEN358Y2tJ-2" target="FcgcPlc2oOZEN358Y2tJ-4">
          <mxGeometry relative="1" as="geometry">
            <mxPoint x="160" y="1120" as="targetPoint" />
            <mxPoint x="160" y="120" as="sourcePoint" />
          </mxGeometry>
        </mxCell>
        <mxCell id="TaTsrI8ihkAiQImEdTjc-0" value="&lt;div style=&quot;background-color: rgb(245 , 245 , 245) ; font-family: &amp;#34;consolas&amp;#34; , &amp;#34;courier new&amp;#34; , monospace ; font-size: 16px ; line-height: 22px&quot;&gt;&lt;div style=&quot;color: rgb(51 , 51 , 51) ; font-family: &amp;#34;consolas&amp;#34; , &amp;#34;courier new&amp;#34; , monospace ; line-height: 22px&quot;&gt;&lt;span style=&quot;color: #aa3731 ; font-weight: bold&quot;&gt;LoadClusterMeta&lt;/span&gt;&lt;/div&gt;&lt;div style=&quot;color: rgb(51 , 51 , 51) ; font-family: &amp;#34;consolas&amp;#34; , &amp;#34;courier new&amp;#34; , monospace ; line-height: 22px&quot;&gt;&lt;span style=&quot;color: #aa3731 ; font-weight: bold&quot;&gt;db里面拉取索引的元数据信息&lt;/span&gt;&lt;/div&gt;&lt;/div&gt;" style="html=1;points=[];perimeter=orthogonalPerimeter;" vertex="1" parent="FcgcPlc2oOZEN358Y2tJ-1">
          <mxGeometry x="155" y="420" width="10" height="80" as="geometry" />
        </mxCell>
        <mxCell id="TaTsrI8ihkAiQImEdTjc-1" value="" style="edgeStyle=orthogonalEdgeStyle;html=1;verticalAlign=bottom;endArrow=none;endSize=8;strokeColor=#ff0000;startArrow=none;" edge="1" parent="FcgcPlc2oOZEN358Y2tJ-1" source="TaTsrI8ihkAiQImEdTjc-2" target="TaTsrI8ihkAiQImEdTjc-0">
          <mxGeometry relative="1" as="geometry">
            <mxPoint x="160" y="1120" as="targetPoint" />
            <mxPoint x="160" y="230" as="sourcePoint" />
          </mxGeometry>
        </mxCell>
        <mxCell id="TaTsrI8ihkAiQImEdTjc-2" value="&lt;div style=&quot;background-color: rgb(245 , 245 , 245) ; font-family: &amp;#34;consolas&amp;#34; , &amp;#34;courier new&amp;#34; , monospace ; font-size: 16px ; line-height: 22px&quot;&gt;&lt;div style=&quot;color: rgb(51 , 51 , 51) ; font-family: &amp;#34;consolas&amp;#34; , &amp;#34;courier new&amp;#34; , monospace ; line-height: 22px&quot;&gt;&lt;span style=&quot;color: #7a3e9d&quot;&gt;mysql_&lt;/span&gt;&lt;span style=&quot;color: #777777&quot;&gt;.&lt;/span&gt;&lt;span style=&quot;color: #aa3731 ; font-weight: bold&quot;&gt;Init&lt;/span&gt;&lt;span style=&quot;color: #777777&quot;&gt;(&lt;/span&gt;db_config&lt;span style=&quot;color: #777777&quot;&gt;);&lt;/span&gt;&lt;/div&gt;&lt;/div&gt;&lt;div style=&quot;background-color: rgb(245 , 245 , 245) ; font-family: &amp;#34;consolas&amp;#34; , &amp;#34;courier new&amp;#34; , monospace ; font-size: 16px ; line-height: 22px&quot;&gt;&lt;font color=&quot;#7a3e9d&quot;&gt;通过tconf配置信息初始化mysql&lt;/font&gt;&lt;/div&gt;" style="html=1;points=[];perimeter=orthogonalPerimeter;" vertex="1" parent="FcgcPlc2oOZEN358Y2tJ-1">
          <mxGeometry x="155" y="270" width="10" height="80" as="geometry" />
        </mxCell>
        <mxCell id="TaTsrI8ihkAiQImEdTjc-3" value="" style="edgeStyle=orthogonalEdgeStyle;html=1;verticalAlign=bottom;endArrow=none;endSize=8;strokeColor=#ff0000;startArrow=none;" edge="1" parent="FcgcPlc2oOZEN358Y2tJ-1" source="FcgcPlc2oOZEN358Y2tJ-4" target="TaTsrI8ihkAiQImEdTjc-2">
          <mxGeometry relative="1" as="geometry">
            <mxPoint x="160" y="420" as="targetPoint" />
            <mxPoint x="160" y="230" as="sourcePoint" />
          </mxGeometry>
        </mxCell>
        <mxCell id="TaTsrI8ihkAiQImEdTjc-4" value="&lt;div style=&quot;background-color: rgb(245 , 245 , 245) ; font-family: &amp;#34;consolas&amp;#34; , &amp;#34;courier new&amp;#34; , monospace ; font-size: 16px ; line-height: 22px&quot;&gt;&lt;div style=&quot;color: rgb(51 , 51 , 51) ; font-family: &amp;#34;consolas&amp;#34; , &amp;#34;courier new&amp;#34; , monospace ; line-height: 22px&quot;&gt;&lt;span style=&quot;color: #aa3731 ; font-weight: bold&quot;&gt;GetClusterInfo&lt;/span&gt;&lt;/div&gt;&lt;div style=&quot;color: rgb(51 , 51 , 51) ; font-family: &amp;#34;consolas&amp;#34; , &amp;#34;courier new&amp;#34; , monospace ; line-height: 22px&quot;&gt;&lt;span style=&quot;color: #aa3731 ; font-weight: bold&quot;&gt;解析db拉取信息，获取索引信息&lt;/span&gt;&lt;/div&gt;&lt;/div&gt;" style="html=1;points=[];perimeter=orthogonalPerimeter;" vertex="1" parent="FcgcPlc2oOZEN358Y2tJ-1">
          <mxGeometry x="155" y="580" width="10" height="80" as="geometry" />
        </mxCell>
        <mxCell id="TaTsrI8ihkAiQImEdTjc-5" value="" style="edgeStyle=orthogonalEdgeStyle;html=1;verticalAlign=bottom;endArrow=none;endSize=8;strokeColor=#ff0000;startArrow=none;" edge="1" parent="FcgcPlc2oOZEN358Y2tJ-1" source="TaTsrI8ihkAiQImEdTjc-0" target="TaTsrI8ihkAiQImEdTjc-4">
          <mxGeometry relative="1" as="geometry">
            <mxPoint x="160" y="1120" as="targetPoint" />
            <mxPoint x="160" y="500" as="sourcePoint" />
          </mxGeometry>
        </mxCell>
        <mxCell id="TaTsrI8ihkAiQImEdTjc-6" value="&lt;div style=&quot;background-color: rgb(245 , 245 , 245) ; font-family: &amp;#34;consolas&amp;#34; , &amp;#34;courier new&amp;#34; , monospace ; font-size: 16px ; line-height: 22px&quot;&gt;&lt;div style=&quot;color: rgb(51 , 51 , 51) ; font-family: &amp;#34;consolas&amp;#34; , &amp;#34;courier new&amp;#34; , monospace ; line-height: 22px&quot;&gt;&lt;span style=&quot;color: #aa3731 ; font-weight: bold&quot;&gt;LoadIndexData&lt;/span&gt;&lt;/div&gt;&lt;div style=&quot;color: rgb(51 , 51 , 51) ; font-family: &amp;#34;consolas&amp;#34; , &amp;#34;courier new&amp;#34; , monospace ; line-height: 22px&quot;&gt;&lt;span style=&quot;color: #aa3731 ; font-weight: bold&quot;&gt;加载索引数据&lt;/span&gt;&lt;/div&gt;&lt;/div&gt;" style="html=1;points=[];perimeter=orthogonalPerimeter;" vertex="1" parent="FcgcPlc2oOZEN358Y2tJ-1">
          <mxGeometry x="155" y="710" width="10" height="330" as="geometry" />
        </mxCell>
        <mxCell id="TaTsrI8ihkAiQImEdTjc-7" value="" style="edgeStyle=orthogonalEdgeStyle;html=1;verticalAlign=bottom;endArrow=none;endSize=8;strokeColor=#ff0000;startArrow=none;" edge="1" parent="FcgcPlc2oOZEN358Y2tJ-1" source="TaTsrI8ihkAiQImEdTjc-4" target="TaTsrI8ihkAiQImEdTjc-6">
          <mxGeometry relative="1" as="geometry">
            <mxPoint x="160" y="1120" as="targetPoint" />
            <mxPoint x="160" y="660" as="sourcePoint" />
          </mxGeometry>
        </mxCell>
        <mxCell id="TaTsrI8ihkAiQImEdTjc-10" value="&lt;div style=&quot;color: rgb(51 , 51 , 51) ; background-color: rgb(245 , 245 , 245) ; font-family: &amp;#34;consolas&amp;#34; , &amp;#34;courier new&amp;#34; , monospace ; font-size: 16px ; line-height: 22px&quot;&gt;&lt;span style=&quot;color: #7a3e9d ; font-weight: bold&quot;&gt;IndexFetch&lt;/span&gt;&lt;/div&gt;" style="rounded=1;whiteSpace=wrap;html=1;arcSize=40;fontColor=#000000;fillColor=#ffffc0;strokeColor=#ff0000;" vertex="1" parent="FcgcPlc2oOZEN358Y2tJ-1">
          <mxGeometry x="390" y="80" width="120" height="40" as="geometry" />
        </mxCell>
        <mxCell id="TaTsrI8ihkAiQImEdTjc-11" value="" style="edgeStyle=orthogonalEdgeStyle;html=1;verticalAlign=bottom;endArrow=open;endSize=8;strokeColor=#ff0000;startArrow=none;" edge="1" source="TaTsrI8ihkAiQImEdTjc-17" parent="FcgcPlc2oOZEN358Y2tJ-1">
          <mxGeometry relative="1" as="geometry">
            <mxPoint x="450" y="1150" as="targetPoint" />
          </mxGeometry>
        </mxCell>
        <mxCell id="TaTsrI8ihkAiQImEdTjc-12" value="&lt;div style=&quot;background-color: rgb(245 , 245 , 245) ; font-family: &amp;#34;consolas&amp;#34; , &amp;#34;courier new&amp;#34; , monospace ; font-size: 16px ; line-height: 22px&quot;&gt;&lt;font color=&quot;#7a3e9d&quot;&gt;Fetch&lt;/font&gt;&lt;/div&gt;" style="html=1;points=[];perimeter=orthogonalPerimeter;" vertex="1" parent="FcgcPlc2oOZEN358Y2tJ-1">
          <mxGeometry x="445" y="710" width="10" height="80" as="geometry" />
        </mxCell>
        <mxCell id="TaTsrI8ihkAiQImEdTjc-13" value="" style="edgeStyle=orthogonalEdgeStyle;html=1;verticalAlign=bottom;endArrow=none;endSize=8;strokeColor=#ff0000;" edge="1" parent="FcgcPlc2oOZEN358Y2tJ-1" source="TaTsrI8ihkAiQImEdTjc-10" target="TaTsrI8ihkAiQImEdTjc-12">
          <mxGeometry relative="1" as="geometry">
            <mxPoint x="450" y="690" as="targetPoint" />
            <mxPoint x="450" y="120" as="sourcePoint" />
          </mxGeometry>
        </mxCell>
        <mxCell id="TaTsrI8ihkAiQImEdTjc-15" value="&lt;div style=&quot;background-color: rgb(245 , 245 , 245) ; font-family: &amp;#34;consolas&amp;#34; , &amp;#34;courier new&amp;#34; , monospace ; font-size: 16px ; line-height: 22px&quot;&gt;&lt;div style=&quot;color: rgb(51 , 51 , 51) ; font-family: &amp;#34;consolas&amp;#34; , &amp;#34;courier new&amp;#34; , monospace ; line-height: 22px&quot;&gt;&lt;span style=&quot;color: #aa3731 ; font-weight: bold&quot;&gt;InitS3Client&lt;/span&gt;&lt;/div&gt;&lt;div style=&quot;color: rgb(51 , 51 , 51) ; font-family: &amp;#34;consolas&amp;#34; , &amp;#34;courier new&amp;#34; , monospace ; line-height: 22px&quot;&gt;&lt;span style=&quot;color: #aa3731 ; font-weight: bold&quot;&gt;初始化cos客户端&lt;/span&gt;&lt;/div&gt;&lt;/div&gt;" style="html=1;points=[];perimeter=orthogonalPerimeter;" vertex="1" parent="FcgcPlc2oOZEN358Y2tJ-1">
          <mxGeometry x="445" y="810" width="10" height="80" as="geometry" />
        </mxCell>
        <mxCell id="TaTsrI8ihkAiQImEdTjc-16" value="" style="edgeStyle=orthogonalEdgeStyle;html=1;verticalAlign=bottom;endArrow=none;endSize=8;strokeColor=#ff0000;startArrow=none;" edge="1" parent="FcgcPlc2oOZEN358Y2tJ-1" source="TaTsrI8ihkAiQImEdTjc-12" target="TaTsrI8ihkAiQImEdTjc-15">
          <mxGeometry relative="1" as="geometry">
            <mxPoint x="450" y="980" as="targetPoint" />
            <mxPoint x="450" y="790" as="sourcePoint" />
          </mxGeometry>
        </mxCell>
        <mxCell id="TaTsrI8ihkAiQImEdTjc-17" value="&lt;div style=&quot;background-color: rgb(245 , 245 , 245) ; font-family: &amp;#34;consolas&amp;#34; , &amp;#34;courier new&amp;#34; , monospace ; font-size: 16px ; line-height: 22px&quot;&gt;&lt;div style=&quot;color: rgb(51 , 51 , 51) ; font-family: &amp;#34;consolas&amp;#34; , &amp;#34;courier new&amp;#34; , monospace ; line-height: 22px&quot;&gt;&lt;span style=&quot;color: #aa3731 ; font-weight: bold&quot;&gt;FetchNewIndexFromCos&lt;/span&gt;&lt;/div&gt;&lt;div style=&quot;color: rgb(51 , 51 , 51) ; font-family: &amp;#34;consolas&amp;#34; , &amp;#34;courier new&amp;#34; , monospace ; line-height: 22px&quot;&gt;&lt;span style=&quot;color: #aa3731 ; font-weight: bold&quot;&gt;从cos拉取索引库文件信息&lt;/span&gt;&lt;/div&gt;&lt;/div&gt;" style="html=1;points=[];perimeter=orthogonalPerimeter;" vertex="1" parent="FcgcPlc2oOZEN358Y2tJ-1">
          <mxGeometry x="445" y="960" width="10" height="80" as="geometry" />
        </mxCell>
        <mxCell id="TaTsrI8ihkAiQImEdTjc-18" value="" style="edgeStyle=orthogonalEdgeStyle;html=1;verticalAlign=bottom;endArrow=none;endSize=8;strokeColor=#ff0000;startArrow=none;" edge="1" parent="FcgcPlc2oOZEN358Y2tJ-1" source="TaTsrI8ihkAiQImEdTjc-15" target="TaTsrI8ihkAiQImEdTjc-17">
          <mxGeometry relative="1" as="geometry">
            <mxPoint x="450" y="1150" as="targetPoint" />
            <mxPoint x="450" y="890" as="sourcePoint" />
          </mxGeometry>
        </mxCell>
        <mxCell id="aVD2IIucw9frKs_AY-sD-0" value="" style="endArrow=open;endFill=1;endSize=12;html=1;" edge="1" parent="FcgcPlc2oOZEN358Y2tJ-1">
          <mxGeometry width="160" relative="1" as="geometry">
            <mxPoint x="180" y="710.03" as="sourcePoint" />
            <mxPoint x="430" y="710" as="targetPoint" />
          </mxGeometry>
        </mxCell>
        <mxCell id="eJx9Th9ubxPa89HHhf8I-0" value="" style="endArrow=open;endFill=1;endSize=12;html=1;" edge="1" parent="FcgcPlc2oOZEN358Y2tJ-1">
          <mxGeometry width="160" relative="1" as="geometry">
            <mxPoint x="430" y="1040" as="sourcePoint" />
            <mxPoint x="185" y="1040" as="targetPoint" />
          </mxGeometry>
        </mxCell>
        <mxCell id="eJx9Th9ubxPa89HHhf8I-1" value="&lt;div style=&quot;color: rgb(51 , 51 , 51) ; background-color: rgb(245 , 245 , 245) ; font-family: &amp;#34;consolas&amp;#34; , &amp;#34;courier new&amp;#34; , monospace ; font-size: 16px ; line-height: 22px&quot;&gt;&lt;span style=&quot;color: #aa3731 ; font-weight: bold&quot;&gt;GTrieDatabaseMgr&lt;/span&gt;&lt;/div&gt;" style="rounded=1;whiteSpace=wrap;html=1;arcSize=40;fontColor=#000000;fillColor=#ffffc0;strokeColor=#ff0000;" vertex="1" parent="FcgcPlc2oOZEN358Y2tJ-1">
          <mxGeometry x="700" y="80" width="120" height="40" as="geometry" />
        </mxCell>
        <mxCell id="eJx9Th9ubxPa89HHhf8I-2" value="" style="edgeStyle=orthogonalEdgeStyle;html=1;verticalAlign=bottom;endArrow=open;endSize=8;strokeColor=#ff0000;startArrow=none;" edge="1" source="eJx9Th9ubxPa89HHhf8I-3" parent="FcgcPlc2oOZEN358Y2tJ-1">
          <mxGeometry relative="1" as="geometry">
            <mxPoint x="760" y="1140" as="targetPoint" />
          </mxGeometry>
        </mxCell>
        <mxCell id="eJx9Th9ubxPa89HHhf8I-3" value="&lt;div style=&quot;background-color: rgb(245 , 245 , 245) ; font-family: &amp;#34;consolas&amp;#34; , &amp;#34;courier new&amp;#34; , monospace ; font-size: 16px ; line-height: 22px&quot;&gt;&lt;font color=&quot;#7a3e9d&quot;&gt;Init&lt;/font&gt;&lt;/div&gt;&lt;div style=&quot;background-color: rgb(245 , 245 , 245) ; font-family: &amp;#34;consolas&amp;#34; , &amp;#34;courier new&amp;#34; , monospace ; font-size: 16px ; line-height: 22px&quot;&gt;&lt;font color=&quot;#7a3e9d&quot;&gt;前缀trie和减拼前缀trie的加载&lt;/font&gt;&lt;/div&gt;&lt;div style=&quot;background-color: rgb(245 , 245 , 245) ; font-family: &amp;#34;consolas&amp;#34; , &amp;#34;courier new&amp;#34; , monospace ; font-size: 16px ; line-height: 22px&quot;&gt;&lt;font color=&quot;#7a3e9d&quot;&gt;todo&lt;/font&gt;&lt;/div&gt;" style="html=1;points=[];perimeter=orthogonalPerimeter;" vertex="1" parent="FcgcPlc2oOZEN358Y2tJ-1">
          <mxGeometry x="755" y="370" width="10" height="140" as="geometry" />
        </mxCell>
        <mxCell id="eJx9Th9ubxPa89HHhf8I-4" value="" style="edgeStyle=orthogonalEdgeStyle;html=1;verticalAlign=bottom;endArrow=none;endSize=8;strokeColor=#ff0000;" edge="1" parent="FcgcPlc2oOZEN358Y2tJ-1" source="eJx9Th9ubxPa89HHhf8I-1" target="eJx9Th9ubxPa89HHhf8I-3">
          <mxGeometry relative="1" as="geometry">
            <mxPoint x="760" y="1110" as="targetPoint" />
            <mxPoint x="760" y="120" as="sourcePoint" />
          </mxGeometry>
        </mxCell>
      </root>
    </mxGraphModel>
  </diagram>
  <diagram id="mF5P6N6MoNnAcyyQvJ9Q" name="Page-5">
    <mxGraphModel dx="3160" dy="1154" grid="1" gridSize="10" guides="1" tooltips="1" connect="1" arrows="1" fold="1" page="1" pageScale="1" pageWidth="827" pageHeight="1169" math="0" shadow="0">
      <root>
        <mxCell id="DuexUwPJji8E4C2ARtf8-0" />
        <mxCell id="DuexUwPJji8E4C2ARtf8-1" parent="DuexUwPJji8E4C2ARtf8-0" />
        <mxCell id="DuexUwPJji8E4C2ARtf8-2" value="&lt;div style=&quot;color: rgb(51 , 51 , 51) ; background-color: rgb(245 , 245 , 245) ; font-family: &amp;#34;consolas&amp;#34; , &amp;#34;courier new&amp;#34; , monospace ; font-size: 16px ; line-height: 22px&quot;&gt;&lt;span style=&quot;color: #7a3e9d ; font-weight: bold&quot;&gt;Processor&lt;/span&gt;&lt;/div&gt;" style="rounded=1;whiteSpace=wrap;html=1;arcSize=40;fontColor=#000000;fillColor=#ffffc0;strokeColor=#ff0000;" vertex="1" parent="DuexUwPJji8E4C2ARtf8-1">
          <mxGeometry x="110" y="100" width="120" height="40" as="geometry" />
        </mxCell>
        <mxCell id="DuexUwPJji8E4C2ARtf8-3" value="" style="edgeStyle=orthogonalEdgeStyle;html=1;verticalAlign=bottom;endArrow=open;endSize=8;strokeColor=#FF0000;startArrow=none;" edge="1" source="0C5U8hu5IOyFyK8uZn0O-1" parent="DuexUwPJji8E4C2ARtf8-1">
          <mxGeometry relative="1" as="geometry">
            <mxPoint x="170" y="1130" as="targetPoint" />
          </mxGeometry>
        </mxCell>
        <mxCell id="DuexUwPJji8E4C2ARtf8-8" value="&lt;div style=&quot;color: rgb(51 , 51 , 51) ; background-color: rgb(245 , 245 , 245) ; font-family: &amp;#34;consolas&amp;#34; , &amp;#34;courier new&amp;#34; , monospace ; font-size: 16px ; line-height: 22px&quot;&gt;&lt;span style=&quot;color: #aa3731 ; font-weight: bold&quot;&gt;Run&lt;/span&gt;&lt;/div&gt;" style="html=1;points=[];perimeter=orthogonalPerimeter;" vertex="1" parent="DuexUwPJji8E4C2ARtf8-1">
          <mxGeometry x="165" y="190" width="10" height="80" as="geometry" />
        </mxCell>
        <mxCell id="DuexUwPJji8E4C2ARtf8-10" value="&lt;div style=&quot;color: rgb(51 , 51 , 51) ; background-color: rgb(245 , 245 , 245) ; font-family: &amp;#34;consolas&amp;#34; , &amp;#34;courier new&amp;#34; , monospace ; font-size: 16px ; line-height: 22px&quot;&gt;&lt;span style=&quot;color: rgb(170 , 55 , 49) ; font-weight: bold&quot;&gt;GetRecords&amp;nbsp;&lt;/span&gt;&lt;/div&gt;&lt;div style=&quot;color: rgb(51 , 51 , 51) ; background-color: rgb(245 , 245 , 245) ; font-family: &amp;#34;consolas&amp;#34; , &amp;#34;courier new&amp;#34; , monospace ; font-size: 16px ; line-height: 22px&quot;&gt;&lt;span style=&quot;color: rgb(170 , 55 , 49) ; font-weight: bold&quot;&gt;kafka里面获取业务数据&lt;/span&gt;&lt;br&gt;&lt;/div&gt;" style="html=1;points=[];perimeter=orthogonalPerimeter;" vertex="1" parent="DuexUwPJji8E4C2ARtf8-1">
          <mxGeometry x="165" y="340" width="10" height="80" as="geometry" />
        </mxCell>
        <mxCell id="DuexUwPJji8E4C2ARtf8-12" value="&lt;div style=&quot;color: rgb(51 , 51 , 51) ; background-color: rgb(245 , 245 , 245) ; font-family: &amp;#34;consolas&amp;#34; , &amp;#34;courier new&amp;#34; , monospace ; font-size: 16px ; line-height: 22px&quot;&gt;&lt;div style=&quot;font-family: &amp;#34;consolas&amp;#34; , &amp;#34;courier new&amp;#34; , monospace ; line-height: 22px&quot;&gt;&lt;span style=&quot;color: #aa3731 ; font-weight: bold&quot;&gt;ParseToRecord&lt;/span&gt;&lt;/div&gt;&lt;div style=&quot;font-family: &amp;#34;consolas&amp;#34; , &amp;#34;courier new&amp;#34; , monospace ; line-height: 22px&quot;&gt;&lt;span style=&quot;color: #aa3731 ; font-weight: bold&quot;&gt;解析record里面字段&lt;/span&gt;&lt;/div&gt;&lt;div style=&quot;font-family: &amp;#34;consolas&amp;#34; , &amp;#34;courier new&amp;#34; , monospace ; line-height: 22px&quot;&gt;&lt;div style=&quot;font-family: &amp;#34;consolas&amp;#34; , &amp;#34;courier new&amp;#34; , monospace ; line-height: 22px&quot;&gt;&lt;span style=&quot;color: #7a3e9d&quot;&gt;doc_id,&amp;nbsp;&lt;/span&gt;&lt;span style=&quot;color: rgb(122 , 62 , 157)&quot;&gt;action,&lt;/span&gt;&lt;span style=&quot;color: rgb(122 , 62 , 157)&quot;&gt;is_slow,&lt;/span&gt;&lt;span&gt;data,&lt;/span&gt;&lt;span&gt;modify_time&lt;/span&gt;&amp;nbsp;&lt;span style=&quot;color: rgb(122 , 62 , 157)&quot;&gt;&amp;nbsp;&lt;/span&gt;&lt;/div&gt;&lt;/div&gt;&lt;/div&gt;" style="html=1;points=[];perimeter=orthogonalPerimeter;" vertex="1" parent="DuexUwPJji8E4C2ARtf8-1">
          <mxGeometry x="165" y="472" width="10" height="80" as="geometry" />
        </mxCell>
        <mxCell id="DuexUwPJji8E4C2ARtf8-14" value="&lt;div style=&quot;background-color: rgb(245 , 245 , 245) ; font-family: &amp;#34;consolas&amp;#34; , &amp;#34;courier new&amp;#34; , monospace ; font-size: 16px ; line-height: 22px&quot;&gt;算子处理逻辑&lt;/div&gt;" style="html=1;points=[];perimeter=orthogonalPerimeter;" vertex="1" parent="DuexUwPJji8E4C2ARtf8-1">
          <mxGeometry x="165" y="610" width="10" height="310" as="geometry" />
        </mxCell>
        <mxCell id="DuexUwPJji8E4C2ARtf8-16" value="&lt;div style=&quot;color: rgb(51 , 51 , 51) ; background-color: rgb(245 , 245 , 245) ; font-family: &amp;#34;consolas&amp;#34; , &amp;#34;courier new&amp;#34; , monospace ; font-size: 16px ; line-height: 22px&quot;&gt;TaskScheduler&lt;/div&gt;" style="rounded=1;whiteSpace=wrap;html=1;arcSize=40;fontColor=#000000;fillColor=#ffffc0;strokeColor=#ff0000;" vertex="1" parent="DuexUwPJji8E4C2ARtf8-1">
          <mxGeometry x="390" y="100" width="120" height="40" as="geometry" />
        </mxCell>
        <mxCell id="DuexUwPJji8E4C2ARtf8-17" value="" style="edgeStyle=orthogonalEdgeStyle;html=1;verticalAlign=bottom;endArrow=open;endSize=8;strokeColor=#ff0000;startArrow=none;" edge="1" source="DuexUwPJji8E4C2ARtf8-23" parent="DuexUwPJji8E4C2ARtf8-1">
          <mxGeometry relative="1" as="geometry">
            <mxPoint x="450" y="1130" as="targetPoint" />
          </mxGeometry>
        </mxCell>
        <mxCell id="DuexUwPJji8E4C2ARtf8-18" value="&lt;div style=&quot;color: rgb(51 , 51 , 51) ; background-color: rgb(245 , 245 , 245) ; font-family: &amp;#34;consolas&amp;#34; , &amp;#34;courier new&amp;#34; , monospace ; font-size: 16px ; line-height: 22px&quot;&gt;&lt;div style=&quot;font-family: &amp;#34;consolas&amp;#34; , &amp;#34;courier new&amp;#34; , monospace ; line-height: 22px&quot;&gt;&lt;span style=&quot;color: #aa3731 ; font-weight: bold&quot;&gt;ScheduleAndWait&lt;/span&gt;&lt;/div&gt;&lt;/div&gt;" style="html=1;points=[];perimeter=orthogonalPerimeter;" vertex="1" parent="DuexUwPJji8E4C2ARtf8-1">
          <mxGeometry x="445" y="617" width="10" height="80" as="geometry" />
        </mxCell>
        <mxCell id="DuexUwPJji8E4C2ARtf8-20" value="" style="edgeStyle=orthogonalEdgeStyle;html=1;verticalAlign=bottom;endArrow=none;endSize=8;strokeColor=#ff0000;" edge="1" parent="DuexUwPJji8E4C2ARtf8-1" source="DuexUwPJji8E4C2ARtf8-16" target="DuexUwPJji8E4C2ARtf8-18">
          <mxGeometry relative="1" as="geometry">
            <mxPoint x="450" y="820" as="targetPoint" />
            <mxPoint x="450" y="140" as="sourcePoint" />
          </mxGeometry>
        </mxCell>
        <mxCell id="DuexUwPJji8E4C2ARtf8-21" value="&lt;div style=&quot;color: rgb(51 , 51 , 51) ; background-color: rgb(245 , 245 , 245) ; font-family: &amp;#34;consolas&amp;#34; , &amp;#34;courier new&amp;#34; , monospace ; font-size: 16px ; line-height: 22px&quot;&gt;&lt;div style=&quot;font-family: &amp;#34;consolas&amp;#34; , &amp;#34;courier new&amp;#34; , monospace ; line-height: 22px&quot;&gt;&lt;span style=&quot;color: #aa3731 ; font-weight: bold&quot;&gt;RunTask&lt;/span&gt;&lt;/div&gt;&lt;/div&gt;" style="html=1;points=[];perimeter=orthogonalPerimeter;" vertex="1" parent="DuexUwPJji8E4C2ARtf8-1">
          <mxGeometry x="445" y="727" width="10" height="80" as="geometry" />
        </mxCell>
        <mxCell id="DuexUwPJji8E4C2ARtf8-22" value="" style="edgeStyle=orthogonalEdgeStyle;html=1;verticalAlign=bottom;endArrow=none;endSize=8;strokeColor=#ff0000;startArrow=none;" edge="1" parent="DuexUwPJji8E4C2ARtf8-1" source="DuexUwPJji8E4C2ARtf8-18" target="DuexUwPJji8E4C2ARtf8-21">
          <mxGeometry relative="1" as="geometry">
            <mxPoint x="450" y="977" as="targetPoint" />
            <mxPoint x="450" y="697" as="sourcePoint" />
          </mxGeometry>
        </mxCell>
        <mxCell id="DuexUwPJji8E4C2ARtf8-23" value="&lt;div style=&quot;background-color: rgb(245 , 245 , 245) ; font-family: &amp;#34;consolas&amp;#34; , &amp;#34;courier new&amp;#34; , monospace ; font-size: 16px ; line-height: 22px&quot;&gt;&lt;div style=&quot;font-family: &amp;#34;consolas&amp;#34; , &amp;#34;courier new&amp;#34; , monospace ; line-height: 22px&quot;&gt;&lt;div style=&quot;font-family: &amp;#34;consolas&amp;#34; , &amp;#34;courier new&amp;#34; , monospace ; line-height: 22px&quot;&gt;&lt;font color=&quot;#aa3731&quot;&gt;&lt;b&gt;根据配置的算子处理逻辑&lt;/b&gt;&lt;/font&gt;&lt;/div&gt;&lt;div style=&quot;color: rgb(51 , 51 , 51) ; font-family: &amp;#34;consolas&amp;#34; , &amp;#34;courier new&amp;#34; , monospace ; line-height: 22px&quot;&gt;&lt;span style=&quot;color: #aa3731 ; font-weight: bold&quot;&gt;BuildProc&lt;/span&gt;&lt;/div&gt;&lt;/div&gt;&lt;/div&gt;" style="html=1;points=[];perimeter=orthogonalPerimeter;" vertex="1" parent="DuexUwPJji8E4C2ARtf8-1">
          <mxGeometry x="445" y="837" width="10" height="80" as="geometry" />
        </mxCell>
        <mxCell id="DuexUwPJji8E4C2ARtf8-24" value="" style="edgeStyle=orthogonalEdgeStyle;html=1;verticalAlign=bottom;endArrow=none;endSize=8;strokeColor=#ff0000;startArrow=none;" edge="1" parent="DuexUwPJji8E4C2ARtf8-1" source="DuexUwPJji8E4C2ARtf8-21" target="DuexUwPJji8E4C2ARtf8-23">
          <mxGeometry relative="1" as="geometry">
            <mxPoint x="450" y="977" as="targetPoint" />
            <mxPoint x="450" y="807" as="sourcePoint" />
          </mxGeometry>
        </mxCell>
        <mxCell id="FhLwCRUWh7BRcvqrEqAz-0" value="" style="endArrow=open;endFill=1;endSize=12;html=1;" edge="1" parent="DuexUwPJji8E4C2ARtf8-1">
          <mxGeometry width="160" relative="1" as="geometry">
            <mxPoint x="190" y="617.03" as="sourcePoint" />
            <mxPoint x="440" y="617" as="targetPoint" />
          </mxGeometry>
        </mxCell>
        <mxCell id="0C5U8hu5IOyFyK8uZn0O-0" value="" style="endArrow=open;endFill=1;endSize=12;html=1;" edge="1" parent="DuexUwPJji8E4C2ARtf8-1">
          <mxGeometry width="160" relative="1" as="geometry">
            <mxPoint x="440" y="917" as="sourcePoint" />
            <mxPoint x="185" y="917" as="targetPoint" />
          </mxGeometry>
        </mxCell>
        <mxCell id="0C5U8hu5IOyFyK8uZn0O-1" value="&lt;div style=&quot;color: rgb(51 , 51 , 51) ; background-color: rgb(245 , 245 , 245) ; font-family: &amp;#34;consolas&amp;#34; , &amp;#34;courier new&amp;#34; , monospace ; font-size: 16px ; line-height: 22px&quot;&gt;&lt;div style=&quot;font-family: &amp;#34;consolas&amp;#34; , &amp;#34;courier new&amp;#34; , monospace ; line-height: 22px&quot;&gt;&lt;span style=&quot;color: #7a3e9d&quot;&gt;kafka_writer_&lt;/span&gt;&lt;span style=&quot;color: #aa3731 ; font-weight: bold&quot;&gt;-&amp;gt;&lt;/span&gt;&lt;span style=&quot;color: #aa3731 ; font-weight: bold&quot;&gt;Produce&lt;/span&gt;&lt;/div&gt;&lt;div style=&quot;font-family: &amp;#34;consolas&amp;#34; , &amp;#34;courier new&amp;#34; , monospace ; line-height: 22px&quot;&gt;&lt;span style=&quot;color: #aa3731 ; font-weight: bold&quot;&gt;处理完的数据放入kafka&lt;/span&gt;&lt;/div&gt;&lt;/div&gt;" style="html=1;points=[];perimeter=orthogonalPerimeter;" vertex="1" parent="DuexUwPJji8E4C2ARtf8-1">
          <mxGeometry x="165" y="990" width="10" height="80" as="geometry" />
        </mxCell>
        <mxCell id="0C5U8hu5IOyFyK8uZn0O-16" value="" style="endArrow=classic;html=1;exitX=0.5;exitY=1;exitDx=0;exitDy=0;strokeColor=#FF0000;" edge="1" parent="DuexUwPJji8E4C2ARtf8-1" source="DuexUwPJji8E4C2ARtf8-2">
          <mxGeometry width="50" height="50" relative="1" as="geometry">
            <mxPoint x="170" y="150" as="sourcePoint" />
            <mxPoint x="169.5" y="190" as="targetPoint" />
          </mxGeometry>
        </mxCell>
        <mxCell id="0C5U8hu5IOyFyK8uZn0O-18" value="" style="endArrow=classic;html=1;exitX=0.5;exitY=1;exitDx=0;exitDy=0;strokeColor=#FF0000;" edge="1" parent="DuexUwPJji8E4C2ARtf8-1" target="DuexUwPJji8E4C2ARtf8-10">
          <mxGeometry width="50" height="50" relative="1" as="geometry">
            <mxPoint x="170" y="270" as="sourcePoint" />
            <mxPoint x="169.5" y="320" as="targetPoint" />
          </mxGeometry>
        </mxCell>
        <mxCell id="0C5U8hu5IOyFyK8uZn0O-19" value="" style="endArrow=classic;html=1;exitX=0.5;exitY=1;exitDx=0;exitDy=0;strokeColor=#FF0000;" edge="1" parent="DuexUwPJji8E4C2ARtf8-1">
          <mxGeometry width="50" height="50" relative="1" as="geometry">
            <mxPoint x="169.5" y="420" as="sourcePoint" />
            <mxPoint x="170" y="470" as="targetPoint" />
          </mxGeometry>
        </mxCell>
        <mxCell id="0C5U8hu5IOyFyK8uZn0O-20" value="" style="endArrow=classic;html=1;exitX=0.5;exitY=1;exitDx=0;exitDy=0;entryX=0.5;entryY=-0.01;entryDx=0;entryDy=0;entryPerimeter=0;strokeColor=#FF0000;" edge="1" parent="DuexUwPJji8E4C2ARtf8-1" target="DuexUwPJji8E4C2ARtf8-14">
          <mxGeometry width="50" height="50" relative="1" as="geometry">
            <mxPoint x="169.5" y="552" as="sourcePoint" />
            <mxPoint x="170" y="602" as="targetPoint" />
          </mxGeometry>
        </mxCell>
        <mxCell id="0C5U8hu5IOyFyK8uZn0O-21" value="" style="endArrow=classic;html=1;exitX=0.4;exitY=1.01;exitDx=0;exitDy=0;exitPerimeter=0;strokeColor=#FF0000;" edge="1" parent="DuexUwPJji8E4C2ARtf8-1" source="DuexUwPJji8E4C2ARtf8-14">
          <mxGeometry width="50" height="50" relative="1" as="geometry">
            <mxPoint x="169.5" y="930" as="sourcePoint" />
            <mxPoint x="170" y="985" as="targetPoint" />
          </mxGeometry>
        </mxCell>
        <mxCell id="0C5U8hu5IOyFyK8uZn0O-22" value="" style="endArrow=classic;html=1;strokeColor=#FF0000;" edge="1" parent="DuexUwPJji8E4C2ARtf8-1">
          <mxGeometry width="50" height="50" relative="1" as="geometry">
            <mxPoint x="450" y="700" as="sourcePoint" />
            <mxPoint x="450" y="727" as="targetPoint" />
          </mxGeometry>
        </mxCell>
        <mxCell id="0C5U8hu5IOyFyK8uZn0O-24" value="" style="endArrow=classic;html=1;strokeColor=#FF0000;" edge="1" parent="DuexUwPJji8E4C2ARtf8-1">
          <mxGeometry width="50" height="50" relative="1" as="geometry">
            <mxPoint x="450" y="810" as="sourcePoint" />
            <mxPoint x="450" y="837" as="targetPoint" />
          </mxGeometry>
        </mxCell>
      </root>
    </mxGraphModel>
  </diagram>
</mxfile>
